<?xml version="1.0" standalone="no"?>
<!DOCTYPE svg PUBLIC "-//W3C//DTD SVG 1.1//EN" "http://www.w3.org/Graphics/SVG/1.1/DTD/svg11.dtd" >
<svg xmlns="http://www.w3.org/2000/svg">
<metadata></metadata>
<defs>
<font id="dandelioninthespringRegular" horiz-adv-x="1271" >
<font-face units-per-em="2048" ascent="1536" descent="-512" />
<missing-glyph horiz-adv-x="366" />
<glyph horiz-adv-x="0" />
<glyph horiz-adv-x="2048" />
<glyph unicode=" "  horiz-adv-x="366" />
<glyph unicode="&#x09;" horiz-adv-x="366" />
<glyph unicode="&#xa0;" horiz-adv-x="366" />
<glyph unicode="!" horiz-adv-x="235" d="M8 1374q5 28 24 39q37 20 48 -14q18 -287 38.5 -566.5t28.5 -566.5q0 -34 -31 -49q-29 -14 -40 25q3 214 -18 461t-33.5 388.5t-16.5 282.5zM57 54q11 59 74 59q20 0 28.5 -10.5t5.5 -24.5q-7 -32 -50 -43q-16 -18 -40 -15t-18 34z" />
<glyph unicode="&#x22;" horiz-adv-x="409" d="M29 1368q5 29 24 39q36 19 47 -14q4 -109 27 -214.5t27 -215.5q0 -33 -31 -49q-29 -16 -41 24q-3 90 -19 180q-31 177 -34 250zM266 981l10 354q2 16 14.5 28.5t25.5 16.5q32 10 32 -32l-10 -342q0 -33 -31 -50q-29 -15 -41 25z" />
<glyph unicode="#" horiz-adv-x="866" d="M3 854q8 30 34 39q5 0 203 6q-10 119 -15 270q5 27 24 39q36 21 48 -14q4 -144 16 -293l232 6l6 213q2 16 14.5 28.5t24.5 16.5t22.5 -3t10.5 -29q-7 -200 -9 -224l150 6h16l15 -6l6 -6q0 -2 2 -5t2 -17q-12 -37 -41 -41h-14q-25 -2 -61 -2t-79 -2q-4 -37 -5 -74t-3 -74 l176 6h17l14 -6l6 -6q0 -2 2 -5t2 -18q-12 -35 -41 -41h-14l-166 -6q-6 -98 -6 -196q-9 -31 -34 -38q-27 -7 -38 25q0 101 8 207l-190 -4q12 -222 12 -239.5t-9 -31t-21 -19.5q-30 -16 -41 24q0 135 -13 262q-210 -6 -225.5 -5t-21 12.5t-2.5 23.5q8 30 34 39q14 0 209 6 l-14 145q-204 -6 -219.5 -5t-21 12.5t-2.5 23.5zM319 827l13 -147l200 6q2 37 3.5 74t5.5 74z" />
<glyph unicode="$" horiz-adv-x="858" d="M29 973q0 68 125 151q98 65 249 125q-4 132 -4 267q4 26 24 38q37 22 48 -14q0 -136 4 -266q145 43 231 7q58 -24 66 -95q21 -13 13 -32q-17 -36 -42 -40q-18 0 -31.5 12.5t-9.5 32.5q-16 108 -223 39l13 -350q273 0 292 -90q15 -90 -72 -193q-83 -98 -204 -153l8 -328 q0 -34 -30 -49q-29 -14 -42 24q-2 82 -3 163t-5 163q-121 -34 -190 35q-23 25 -33 54.5t-25 57.5q-8 29 8 44q32 30 56 6q12 -25 21.5 -51.5t30.5 -49.5q37 -43 130 -20q-6 232 -10 311q-72 -4 -142.5 -4t-127.5 18q-129 38 -125 187zM100.5 976q-12.5 -32 5 -55.5t48 -40 t64.5 -25.5t53 -12t58.5 -1t90.5 4l-12 330q-175 -60 -264 -140q-31 -28 -43.5 -60zM496 774l10 -287q72 33 120 85q83 89 87 147q-12 10 -22.5 20.5t-34.5 20.5q-44 19 -160 14z" />
<glyph unicode="%" horiz-adv-x="1138" d="M51 1171q4 86 32 167t56.5 109.5t55 57.5t51.5 31h8q133 15 204 -100q60 -99 60 -234q4 -80 -55 -149q-79 -91 -124 -119q-93 -57 -177 -25q-63 27 -89 101.5t-22 160.5zM72 33v2v-2q2 4 26.5 52t343 691t357.5 728t49 120q17 38 46 33q11 -2 18.5 -13.5t21.5 -31.5 q-76 -137 -801 -1614q-35 -23 -55.5 -10.5t-5.5 45.5zM121 1188q-10 -159 80 -205q77 -38 159 47q72 75 86 154q35 69 -4 160q-37 88 -107 116q-78 30 -138 -47q-29 -35 -50.5 -96.5t-25.5 -128.5zM582 459q4 86 31.5 167t56 109.5t55.5 57t51 30.5h8q132 15 204 -100 q61 -97 61 -234q4 -79 -56 -149q-78 -89 -123 -117q-96 -59 -178 -26q-63 27 -88.5 101.5t-21.5 160.5zM651 476q-10 -160 80 -206q76 -37 159 48q72 73 87 153q35 67 -5 160q-37 88 -107 115q-76 31 -138 -46q-29 -35 -50.5 -96t-25.5 -128z" />
<glyph unicode="&#x26;" horiz-adv-x="892" d="M12 784q55 180 418 226q74 10 116 4t88 -13.5t90 -24.5q107 -43 97 -122q-4 -29 -5 -55.5t-17.5 -68.5t-60.5 -102.5t-96 -121t-105.5 -117.5t-92.5 -110l-18 -25l109 -94l61 -62q81 45 158 97q34 11 42 -16q8 -28 -21 -50q-49 -37 -124 -80q39 -29 82 -35q31 -12 21 -42 q-9 -28 -41 -33q-68 7 -140 71q-76 -31 -118.5 -45t-89 -17t-77.5 12q-92 45 44 269q-145 135 -215 224t-98.5 175.5t-6.5 155.5zM88 645q20 -46 97 -146t192 -202q65 92 164.5 205.5t136.5 159t61.5 98.5t8 86t-52.5 52q-66 36 -137.5 37t-133.5 -2t-121 -17 q-137 -34 -207 -111q-52 -59 -8 -160zM326 31q61 -28 194 28l-43 43q-50 46 -98 86q-71 -95 -53 -157z" />
<glyph unicode="'" horiz-adv-x="215" d="M47 1335q2 16 16.5 28.5t28.5 16.5t26.5 -3t12.5 -29l-10 -342q0 -33 -31 -50q-29 -15 -41 25z" />
<glyph unicode="(" horiz-adv-x="473" d="M12.5 917.5q18.5 176.5 87.5 334.5q147 342 473 507q41 0 34 -35t-42 -41q-284 -157 -407 -473q-116 -297 -54 -634q63 -344 295 -578q154 -154 299 -184q25 -18 12 -37q-19 -30 -35.5 -35.5t-45.5 3.5t-73 33q-123 65 -232 178.5t-189 275t-110.5 335.5t-12 350.5z" />
<glyph unicode=")" horiz-adv-x="526" d="M-258 -208q0 11 14 22q145 30 280.5 166.5t210.5 286t104.5 310t16 323.5t-70.5 310q-123 319 -408 473q-16 2 -27.5 14.5t-14.5 26.5q-7 35 34 35q327 -165 475 -507q139 -322 74 -685q-66 -369 -317 -628q-101 -101 -214 -161q-87 -47 -103.5 -41.5t-28 13.5 t-18.5 19.5t-7 22.5z" />
<glyph unicode="*" horiz-adv-x="1222" d="M8 731q23 51 78 78t132 31t150 -12q173 -36 214 -123q39 32 99 100q106 119 167 160q111 72 192.5 32.5t106.5 -178.5q10 -47 -6.5 -98t-45 -126.5t-89 -167t-125 -181.5t-125 -182.5t-84 -159t-25.5 -96t-6 -58.5l80 -92q10 -29 -5 -46q-25 -32 -52 -11q-23 29 -49.5 52 t-42 57t-4 85t33 103.5t47 97.5t53 92t77.5 116.5t99 140.5q118 174 164 296q39 91 33 166.5t-41 103t-80 18.5q-82 -17 -178 -112q-49 -47 -96 -105.5t-91.5 -85t-56.5 -14t-8 30.5q-8 12 -12 25q-43 59 -196 86q-148 28 -199 -6q-10 -8 -20.5 -19.5t-20.5 -21.5 q4 -14 4 -29.5t18.5 -56t88 -114t152.5 -141.5q188 -152 323 -204q35 -12 18 -48q-17 -34 -49 -26q-128 53 -291 180q-35 29 -65.5 53.5t-60.5 48.5q-45 38 -116 115q-56 71 -80 117q-33 78 -10 129z" />
<glyph unicode="+" horiz-adv-x="706" d="M-9 696q7 31 34 39l223 8v355q2 16 14 28.5t24.5 16.5t22.5 -3t10 -30v-362l308 10h16l14 -6l7 -7q0 -2 2 -5t2 -17q-12 -37 -41 -41h-15l-293 -10v-223l-14 -33l-16 -13h-2q-8 -6 -14.5 -3t-10.5 3l-10 13l-2 6q-2 2 -2 8v238l-232 -9q-33 4 -25 37z" />
<glyph unicode="," horiz-adv-x="243" d="M25 0q-10 29 9 61.5t39.5 35.5t25.5 1t14 -10l2 -4q4 -20 0 -31q79 -27 27 -157q-13 -35 -29 -62q-20 -20 -45 -14q-20 20 -18.5 38.5t16.5 28.5q33 76 18 101l-33 -6q-20 8 -26 18z" />
<glyph unicode="-" horiz-adv-x="526" d="M-11 696q7 31 34 39q106 4 210.5 12.5t212.5 10.5h17l14 -6l6 -7q0 -2 2 -5t2 -17q-12 -37 -41 -41h-14q-106 -2 -210 -10.5t-208 -12.5q-33 4 -25 37z" />
<glyph unicode="." horiz-adv-x="200" d="M33 45v8q6 37 37 47l28 2q31 0 34 -27.5t-7 -40.5q-13 -17 -62 -32h-2q-14 4 -19 17.5t-9 25.5zM100 92l2 -2v2h-2z" />
<glyph unicode="/" horiz-adv-x="866" d="M-12 35l24 45q27 53 345.5 696t357.5 728t49 120q17 38 46 33q11 -2 18.5 -13.5t21.5 -31.5q-76 -137 -801 -1614q-35 -23 -55.5 -10.5t-5.5 47.5z" />
<glyph unicode="0" horiz-adv-x="1126" d="M14 683q-19 254 31 464q28 107 48 143q33 60 89 142q251 232 474 164q190 -59 308 -326q111 -251 103 -556q-9 -318 -147 -526q-49 -73 -178 -136q-257 -125 -442 -2q-252 168 -286 633zM78 912q-22 -328 88 -574q55 -123 146 -199t204.5 -71.5t207 46t155 126.5 t93.5 208t33 256.5t-27 267.5t-78 246.5t-120.5 194.5t-156.5 113q-190 67 -390 -144q-133 -140 -155 -470z" />
<glyph unicode="1" horiz-adv-x="718" d="M1 1210q-11 24 9 50q106 88 216 167.5t214 167.5q33 25 47 0q12 4 21.5 -3t9.5 -29l-10 -1516q0 -33 -31 -49q-30 -15 -41 25q0 371 5 747.5t5 745.5q-98 -78 -200.5 -155t-200.5 -157q-32 -20 -44 6z" />
<glyph unicode="2" horiz-adv-x="1093" d="M-11 26.5q9 32.5 19.5 46t24.5 11.5q117 100 253 200.5t261 214t223 251t132 291t1 246.5t-103.5 150.5t-171 77t-188.5 3t-133 -33t-83 -40t-76.5 -54t-96.5 -71.5q-18 -10 -30.5 -6t-15.5 16q-8 33 22 53q59 43 101 77t84 59q85 49 216 73.5t240.5 2t185.5 -89.5 q161 -143 125 -435q-25 -198 -183 -409q-172 -227 -520 -474q-90 -65 -165 -120q227 -2 451 4t450 8q20 0 28.5 -9.5t5.5 -20.5q-11 -32 -42 -36l-500 -8t-502 -10q-22 0 -13 32.5z" />
<glyph unicode="3" horiz-adv-x="1320" d="M6 254q-4 27 11.5 47.5t34 26.5t31.5 -4.5t1 -42.5q139 -171 381 -197q240 -25 441 90q100 57 173.5 148.5t97 193t-1 164.5t-76.5 109.5t-125 75t-151 36.5q-178 18 -293 -49q-29 7 -27 38q2 30 25 48q91 12 206 98q175 131 214 274q12 44 -6 81t-63 64.5t-102.5 42.5 t-123 19.5t-131.5 -3.5q-145 -16 -225 -70q-8 -35 -47 -35q-14 0 -25.5 10.5t-9.5 32.5q35 61 124 96t195.5 44.5t214 -9t182.5 -63.5t97 -119q27 -87 -76 -229q-59 -81 -180 -187q173 4 306 -85q142 -96 177 -261q25 -106 -24 -211.5t-136 -194t-194.5 -147.5t-205 -74.5 t-193.5 -12.5t-184 29q-179 54 -312 226z" />
<glyph unicode="4" horiz-adv-x="1083" d="M1 826q12 50 38 67q27 82 62.5 162t69.5 161q83 195 105 332q2 16 14.5 28.5t25.5 16.5q32 10 32 -32q-32 -190 -188 -541q-39 -88 -72 -178l680 47l-8 655q5 29 24 39q36 19 47 -14q0 -247 9 -674q160 13 153 20q41 -2 49.5 -25.5t-26.5 -45.5l-48 -4q-53 -4 -128 -11 q12 -666 12 -800q0 -34 -30 -49q-30 -16 -42 24l-10 819l-747 -59q-34 11 -22 62z" />
<glyph unicode="5" horiz-adv-x="1069" d="M20 336q-8 31 22 53q11 8 24.5 5t21.5 -21q132 -296 329 -309q87 -5 170 46.5t148.5 133.5t107.5 183t49 199.5t-28 180.5t-123 124q-199 95 -604 -59q-14 -23 -37 -24h-6q-23 4 -27 20.5t5 32.5l-6 576v13t13 23.5t42 16.5t91 8t136 14.5t153 18.5t143.5 18t107.5 14.5 t56 7.5t21.5 -9.5t4.5 -24.5q-9 -39 -41 -43l-656 -84q0 -125 2 -248t4 -248q446 151 661 31q95 -53 132 -149.5t26.5 -208t-59.5 -227t-123.5 -208t-170 -148.5t-197 -52t-202.5 84t-190 260z" />
<glyph unicode="6" horiz-adv-x="1052" d="M8 416q19 232 120 538q46 138 90 260.5t76 218t36 129t17 46t27.5 16.5t24 -3t-2 -59.5t-38 -144.5t-57.5 -186q-65 -196 -123 -361q161 120 361 90q186 -28 305 -164q124 -141 84 -315q-10 -78 -69.5 -164t-146.5 -157.5t-187.5 -118.5t-188.5 -49q-363 -11 -328 424z M85 308q7 -77 43 -133q82 -127 288 -97q130 37 258 148q133 116 174 250q46 154 -62 284q-51 66 -136 99.5t-177 34.5t-180.5 -30t-145.5 -94q-54 -204 -61.5 -294.5t-0.5 -167.5z" />
<glyph unicode="7" horiz-adv-x="1116" d="M3 1488q8 29 34 38q58 0 148.5 5t184 9t189.5 9t189.5 10.5t166 8.5t118.5 5t54 1t11.5 -10.5t-1.5 -22.5q-13 -34 -28 -44q-63 -127 -141 -283.5t-158 -319.5t-156.5 -317.5t-135.5 -277.5q-130 -274 -133 -285.5t-17.5 -16.5t-28.5 -2q-36 8 -29 42q18 53 186.5 387 t248 493.5t158.5 313t143 278.5l-67 -4q-117 -7 -322 -21t-314.5 -21t-186.5 -10t-91 0t-19.5 13.5t-2.5 21.5z" />
<glyph unicode="8" horiz-adv-x="966" d="M6 1218.5q-4 90.5 36 156t105.5 110.5t150.5 71.5t172 37.5q174 20 310 -21q18 -6 21.5 -20.5t-2.5 -26.5q-17 -35 -49 -27q-221 65 -463 -24q-79 -27 -128 -68q-90 -77 -79 -160q32 -169 305 -360q70 -49 127 -92q131 183 187 296q112 223 130 363q2 16 14.5 28.5 t25 16.5t22.5 -3t10 -30q-48 -314 -338 -710q272 -194 205 -490q-26 -128 -178 -212q-143 -80 -266 -42q-60 19 -100 71t-41 119.5t19.5 118t50.5 99.5t60.5 94t52.5 78q33 50 101 141q-33 25 -79 56.5t-96 68.5t-100.5 80t-91.5 89q-90 101 -94 191.5zM298 124 q58 -42 119 -42q180 0 249 116q47 78 41.5 172.5t-55.5 183.5t-136 138q-57 -74 -87.5 -121t-63.5 -94t-62 -99q-103 -184 -5 -254z" />
<glyph unicode="9" horiz-adv-x="1024" d="M-3 1028q5 45 17 96q54 132 194 268q144 139 296 190q168 56 287 -38v-10v6q-4 -35 -34.5 -45.5t-37.5 27.5v6q-94 48 -289 -58q-188 -101 -297 -250q-53 -73 -70.5 -147t18.5 -124t83 -59t99 2q84 18 180.5 71t188 120.5t148.5 159.5q0 165 40 260q14 35 38 49 q37 12 45 -20q10 -40 2 -110q-11 -96 -49 -179l-6 -78q-41 -551 -41 -700.5t-1 -209.5q-2 -141 -11 -208q-6 -35 -41 -41h-8q-25 4 -27 21.5t8 33.5q4 39 5 88.5t2 96.5t1 89v68q10 184 19.5 363.5t19.5 361.5q-61 -68 -142 -123t-138.5 -89.5t-102.5 -56t-93 -35.5 q-113 -31 -189 -3q-130 59 -114 207z" />
<glyph unicode=":" horiz-adv-x="194" d="M33 106v9q6 37 37 47l28 2q31 0 34 -27.5t-7 -41t-29.5 -20.5t-32.5 -12h-2q-14 4 -19 17.5t-9 25.5zM33 672v8q6 37 37 47l28 2q31 0 34 -27.5t-7 -41.5q-12 -16 -62 -31h-2q-14 4 -19 17t-9 26zM100 154l2 -2v2h-2zM100 719l2 -2v2h-2z" />
<glyph unicode=";" horiz-adv-x="225" d="M25 0q-10 29 9 61.5t39.5 35.5t25.5 1t14 -10l2 -4q4 -20 0 -31q79 -27 27 -157q-13 -35 -29 -62q-20 -20 -45 -14q-20 20 -18.5 38.5t16.5 28.5q33 76 18 101l-33 -6q-20 8 -26 18zM33 672v8q6 37 37 47l28 2q31 0 34 -27.5t-7 -41.5q-12 -16 -62 -31h-2q-14 4 -19 17 t-9 26zM100 719l2 -2v2h-2z" />
<glyph unicode="&#x3c;" horiz-adv-x="688" d="M25 365q-2 18 2 30q0 12 12 29q94 94 212 192.5t159 133.5q93 78 96 84q49 37 57 18.5t-1 -53.5t-61 -81t-122 -101.5t-145.5 -114t-102.5 -86t-29 -25.5v2q41 -16 126 -67.5t143.5 -86t111 -65.5t93 -55.5t59.5 -32.5q12 -32 -15 -56q-10 -10 -23 -10t-26 17 q-10 6 -53 29.5t-102.5 57.5t-127 73t-124.5 73q-130 75 -139 95z" />
<glyph unicode="=" horiz-adv-x="716" d="M26 832q7 29 33 38q95 4 216 10q231 13 315 13h16l15 -6l6 -6q0 -2 2 -5t2 -18q-12 -37 -41 -41h-15q-81 0 -208 -7q-164 -9 -316 -15q-33 4 -25 37zM40 610q7 31 34 39q160 6 249 12q186 11 281 11h17l14 -6l6 -7q0 -2 2 -5t2 -17q-12 -37 -41 -41h-14q-82 0 -209 -7 q-229 -13 -315 -16q-34 4 -26 37z" />
<glyph unicode="&#x3e;" horiz-adv-x="720" d="M37 86q18 8 59 32.5t93.5 55.5t110.5 65.5t112 66.5q121 72 157 87l-2 -2q-53 53 -129 111.5t-145.5 114t-121.5 101.5t-61 81t-1 53.5t57 -18.5q4 -8 122 -106.5t170 -143.5q111 -96 175 -160q12 -16 12 -29q4 -12 2 -30q-10 -20 -103 -74.5t-161 -93.5t-127 -73 q-62 -36 -156 -87q-24 -32 -49 -7q-26 24 -14 56z" />
<glyph unicode="?" horiz-adv-x="835" d="M20 930q-4 106 31 198.5t97 157.5q132 141 315 125q113 -9 157 -29q78 -36 136 -125q64 -86 -4 -233q-29 -61 -70 -113.5t-72 -75t-59.5 -39t-56.5 -34.5q-68 -41 -99 -82q-33 -57 -33 -133t13 -180l2 -7q0 -34 -31 -49q-30 -15 -41 27q-42 289 45 387q45 49 104.5 88 t114 80t94 94t45 119.5t-17 107.5t-61.5 69q-82 59 -183 50q-147 -10 -232 -96t-136 -252q9 -26 -6 -44q-27 -31 -52 -11zM307 65q11 58 74 58q20 0 28.5 -10.5t5.5 -24.5q-7 -32 -50 -43q-16 -18 -40 -15t-18 35z" />
<glyph unicode="@" horiz-adv-x="1185" d="M10 414q-4 246 117 441q128 206 344 247q175 30 356 -71q171 -96 253 -266q89 -184 22 -355q-18 -51 -65.5 -105.5t-106.5 -87.5q-138 -78 -221 41q-54 79 -80 168q-97 -180 -230 -199q-100 -15 -118 103q-12 74 6 162t62 164.5t111.5 131t153.5 58.5q16 0 24.5 -8 t9.5 -12.5t6 -14.5t0 -25.5t-15 -24.5q-27 -24 -49 5q-87 -15 -154 -111q-64 -92 -86 -223q-4 -24 -4 -49q0 -61 33 -77.5t67.5 3t65.5 57.5q55 66 96 187q0 70 27 131q45 51 63 0q8 -72 -18 -149q8 -105 62 -192q90 -147 209 -36q42 39 73 101q49 94 36 191t-73.5 178 t-148.5 144.5t-189.5 91t-194.5 7.5q-200 -41 -304 -268q-53 -117 -66.5 -249t25.5 -257q68 -162 179 -254t240 -111.5t259.5 34.5t234.5 185q24 33 48 17q22 -14 2 -60.5t-65.5 -92.5t-108 -81t-135.5 -56.5t-149 -25.5q-164 -9 -288 68l-166 131q-146 161 -150 414z" />
<glyph unicode="A" d="M-49 35l23 45q28 53 76 147.5t111.5 218t132 258t137.5 269.5t124 249q128 266 143 320q14 34 41 34h2q29 -1 25 -38q12 -35 29.5 -81t43 -120.5t61.5 -182t86 -263.5t115.5 -367t153.5 -489q-4 -38 -31 -40q-29 -2 -40 30q1 -4 1 -5v-1q-3 0 -55 160q-61 190 -108 334 t-94 294q-129 -4 -254 -14.5t-256 -12.5q-63 -125 -124 -246.5t-114 -225.5q-111 -219 -168 -310q-17 -15 -34 -15q-9 1 -17 5q-15 8 -15 24q0 10 5 23zM455 854q117 4 227.5 15.5t224.5 17.5q-55 174 -98 322.5t-76 232.5q-49 -129 -278 -588z" />
<glyph unicode="B" horiz-adv-x="1226" d="M29 1561q5 27 24 38q36 21 47 -14v-2q68 4 133.5 13.5t130.5 14.5q34 3 68 2q131 0 264 -39q31 -9 55 -27.5t46 -32t34 -35.5q34 -67 33 -132q0 -111 -98 -215q-45 -47 -100 -83q106 -9 174.5 -36.5t130 -51t119.5 -83.5q58 -58 86 -132q20 -54 21 -112q0 -21 -3 -43 q-10 -81 -72 -149q-135 -147 -316 -252q-203 -116 -432 -138q-125 -12 -203 -12q-21 0 -38 1v12q0 -16 -8 -24l-4 -9q-12 -12 -16.5 -13t-7.5 -3q-2 -1 -5.5 -1t-10.5 1q-13 2 -20 27q3 16 3 42.5t-3 63.5q-4 364 -13 625q-15 438 -19 799zM100 1507q4 -350 16 -695t17 -695 q37 -5 102 -5h23q82 1 180.5 21.5t191.5 54.5q195 73 341 191q150 124 150 255q0 10 -1 20q-13 145 -196 239q-167 86 -404 86q-91 -34 -219 -53q-29 4 -29 24q0 12 10 30q7 11 17 19l6 2v3h2q91 47 213 51q155 64 236 178q38 54 38 108q0 13 -2 25q-10 66 -83.5 108 t-148.5 54q-64 10 -130 10h-22q-76 -2 -153 -13.5t-155 -17.5z" />
<glyph unicode="C" horiz-adv-x="1159" d="M17 765q3 130 38 256t95.5 235.5t145.5 193.5t190 124q82 31 166 32q154 0 315 -105q5 -32 -13 -44.5t-30.5 -12.5t-22.5 16q-117 72 -228 72q-10 0 -20 -1q-121 -7 -224 -69.5t-181 -169t-114 -225.5t-42 -254q-1 -23 -1 -47q-1 -111 23 -217q28 -129 98 -241 q110 -178 328 -230q79 -19 153 -18q117 0 220 46q88 39 138 134q16 37 45 32q23 -4 23 -26q0 -8 -3 -19q-32 -131 -198 -195q-121 -48 -293 -48h-17q-146 0 -256 68q-116 72 -191 185t-111 255q-33 132 -33 253v20zM967 1501v2l2 -6q-2 2 -2 4z" />
<glyph unicode="D" horiz-adv-x="1099" d="M29 496.5q0 428.5 8 1072.5v4q-8 10 -1 30.5t21 30.5q61 15 127 15q134 0 292 -62q232 -92 392 -272q175 -197 186 -423q2 -33 1 -65q1 -184 -53 -321q-64 -160 -195 -264q-240 -190 -766 -234q-12 60 -12 488.5zM109 80q43 10 130 24.5t191.5 44t211 81t190 134 t128.5 205.5q32 88 32 199q0 45 -5 93q-18 169 -107 306.5t-216 232.5q-126 95 -274 142q-114 36 -219 36q-31 0 -62 -3v-1495z" />
<glyph unicode="E" horiz-adv-x="927" d="M29 1552q4 30 37 44q8 4 15 4q17 0 19 -27q684 15 730 16t54 -10q6 -7 7 -18q0 -4 -1 -7q-7 -34 -42 -41q-178 -2 -373.5 -7t-374.5 -9l2 -620q8 4 17 4l463 10q40 0 33 -35q-3 -14 -14 -26.5t-28 -14.5l-471 -10l2 -737q132 0 300 11q211 14 344 14q60 0 104 -3 q18 0 18 -22q0 -45 -24 -37q-144 -15 -321 -20q-335 -9 -447 -19q-14 4 -20.5 12t-11.5 14t-7 20.5t-3 65t-2 148.5t-2 267q-3 507 -3 1033z" />
<glyph unicode="F" horiz-adv-x="913" d="M29 1552q4 30 37 44q30 14 34 -23q180 4 379 16.5t377 14.5q20 0 28 -10q6 -8 7 -18q0 -4 -1 -8q-3 -14 -14.5 -26t-27.5 -14q-178 -2 -373.5 -14.5t-374.5 -16.5l2 -620q8 4 17 4l463 10q40 0 33 -35q-3 -14 -14 -26.5t-28 -14.5l-471 -10l2 -778q0 -41 -17 -44h-6 q-16 0 -38 13q-14 28 -14 1556z" />
<glyph unicode="G" horiz-adv-x="1269" d="M3 742q3 153 38 279t95.5 235.5t145.5 193.5t190 124q82 31 166 31q154 0 314 -104v2l2 -6h-2q0 -33 -16 -44q-31 -22 -49 7q-117 72 -228 72q-10 0 -20 -1q-121 -7 -224.5 -69.5t-181 -169t-114.5 -229.5q-39 -144 -39 -281q0 -133 37 -258q74 -250 266 -368 q141 -88 279 -92h12q131 0 232 76q104 79 158 240q36 109 36 255q0 70 -8 149h-5q-276 -6 -362 -6q-18 4 -24.5 16.5t-0.5 25.5q13 34 54.5 34t94 2t111.5 3h39q110 0 250 -9q2 -10 2 -19q0 -30 -20 -39q-16 -8 -68 -8q10 -84 10 -160q0 -280 -137 -451q-78 -97 -186 -141 q-98 -40 -201 -40q-12 0 -23 1q-116 5 -229.5 59t-202 152.5t-141.5 241.5q-50 136 -50 280v16z" />
<glyph unicode="H" horiz-adv-x="1132" d="M20 1511q2 16 14.5 28.5t25 17t22.5 -3t10 -29.5l2 -684q13 -4 60 -4q76 0 240 10q365 22 493 22q-26 385 -29 686q5 27 24 39q14 8 24 8q17 0 24 -22q4 -385 34.5 -762t59.5 -758q4 -12 4 -17t-3 -13t-12 -18.5t-21 -13.5q-5 -1 -9 -1q-20 0 -27 27q-16 188 -33.5 383.5 t-25.5 289t-8 96.5t-50 1t-177 -9.5t-246 -14.5q-211 -13 -286 -13q-26 0 -36 2l2 -713q0 -41 -17.5 -44t-43.5 13q-15 30 -15 1497z" />
<glyph unicode="I" horiz-adv-x="321" d="M74 1511q4 33 38 45q5 2 10 2q7 0 13 -4q10 -8 10 -30l5 -1479q0 -41 -18 -44h-5q-16 0 -39 13q-14 28 -14 1497z" />
<glyph unicode="J" horiz-adv-x="964" d="M20 240q-2 6 -2 12q0 13 6 24q7 15 19 22q34 20 45 -17q39 -111 169 -171q83 -38 166 -38q41 0 81 9q130 28 178 150q36 106 43 396q2 76 2 143q0 156 -10 265q-26 294 -33.5 351.5t-13.5 106.5q-2 11 -2 20q0 35 18 55q16 17 26 17q5 0 8 -4q11 -12 16 -36.5t8.5 -53.5 t4.5 -40t5 -49t9 -87q15 -147 16 -200.5t9.5 -172.5t9.5 -251v-38q0 -302 -46 -440q-54 -157 -234 -201q-54 -14 -109 -14q-25 0 -49 3q-81 9 -143 40q-75 25 -169 147q-25 31 -28 52z" />
<glyph unicode="K" horiz-adv-x="1077" d="M16 1511q2 16 14.5 28.5t25 17t22.5 -3t10 -29.5l2 -658q509 421 631.5 527t200.5 180q16 21 32 21l16 -5q13 -9 13 -24q0 -27 -44 -71q-93 -93 -243.5 -222t-214 -183.5t-114.5 -97.5q4 -8 4 -20q6 -12 7 -15.5t6 -12.5t50 -68.5t110.5 -143.5t141.5 -183t146 -192 q159 -207 210 -284q3 -8 3 -15q0 -20 -23 -37q-12 -8 -25.5 -8t-19.5 17q-26 51 -138 198.5t-188 247.5t-145.5 190.5t-124.5 162.5q-82 106 -82 112q-197 -149 -209 -152l2 -743q0 -41 -18 -44h-5q-16 0 -38 13q-15 30 -15 1497z" />
<glyph unicode="L" horiz-adv-x="913" d="M29 1552q27 25 43 29h3q14 0 20 -35q11 -61 11 -402l-2 -1076q132 0 300 11q211 14 344 14q60 0 104 -3q18 0 18 -22q0 -45 -24 -37q-144 -15 -321 -20q-335 -9 -447 -19q-14 4 -20.5 12t-11.5 14t-7 20.5t-3 65t-2 148.5t-2 267q-3 507 -3 1033z" />
<glyph unicode="M" horiz-adv-x="1404" d="M12 14q-2 2 -2 21q0 89 48 559q58 568 69 676q26 230 35 246q4 27 29.5 41t35.5 -5q8 -4 15 -8q84 -118 181 -283t153.5 -255.5t121.5 -174.5q135 154 234.5 330t191.5 359q19 51 33 65q15 12 28 12q7 0 13 -4q20 -4 21 -45l159 -1521q0 -23 -10 -30q-6 -4 -14 -4 q-4 0 -8 1q-12 4 -24.5 16.5t-14.5 28.5q-8 8 -32 218t-38 367.5t-29 312.5q-35 377 -41 511q-64 -145 -139.5 -265t-128.5 -199t-98 -138q-93 -124 -110 -124q-2 0 -3 1q-85 85 -368 545q-84 139 -105 180l-141 -1403q0 -41 -17.5 -44t-44.5 13z" />
<glyph unicode="N" horiz-adv-x="1110" d="M11 60v18q-1 64 5 216q6 175 17.5 483t32.5 782q8 30 38 41q13 4 23 -2.5t10 -18.5t2 -12l774 -1442q-12 730 -14 1434q4 31 39 45q4 1 8 1q6 -1 14 -5q10 -8 11 -29l10 -1512l-6 -8q9 -29 -5 -37q-10 -5 -25 -5q-8 0 -17 1q-60 30 -803 1444l-45 -1399q-4 -44 -28 -44 q-14 0 -36 16q-4 -25 -5 33z" />
<glyph unicode="O" horiz-adv-x="1513" d="M45 1124q18 68 72 139q92 124 155 171q216 154 392 192q80 17 151 17q86 0 160 -25q135 -45 229 -157.5t146.5 -260t61.5 -314.5q2 -35 2 -70q0 -130 -26 -252q-34 -156 -113 -283t-202 -195q-163 -88 -317 -96q-20 -1 -39 -1q-132 0 -247 47q-132 54 -234.5 163.5 t-163.5 254.5q-73 174 -73 363q0 149 46 307zM81 904q-3 -38 -3 -76q0 -117 30 -234q40 -156 129 -276t223 -190q109 -56 243 -57q31 0 63 3q176 6 298 95t190 224t86 299q6 59 7 117q0 103 -20 203q-31 156 -108.5 285.5t-198.5 198.5q-105 60 -242 60q-21 0 -42 -2 q-163 -10 -365 -137q-135 -84 -206 -221.5t-84 -291.5z" />
<glyph unicode="P" horiz-adv-x="1130" d="M12 1473q4 26 24 38q37 22 48 -14v-16q106 67 236 103q111 31 218 30h36q124 -6 229.5 -62.5t165.5 -175.5q99 -171 99 -333q0 -96 -35 -188q-42 -112 -130 -199t-208 -136q-142 -58 -296 -58q-128 0 -264 40q12 -180 12 -324q0 -83 -4 -153q-10 -29 -27 -35 q-8 -3 -15 -3q-20 0 -29 23v23q5 64 5 134q1 75 -5 155q-10 158 -18.5 274.5t-15.5 228t-11 185t-7 146.5q-8 156 -8 317zM84 1407q11 -437 25 -593.5t20 -229.5q133 -46 258 -45q25 0 49 1q148 11 263.5 69.5t192.5 154.5q76 96 98 212q7 38 8 77q0 79 -30 161 q-44 122 -169 238q-104 92 -259 92q-190 0 -456 -137z" />
<glyph unicode="Q" horiz-adv-x="1511" d="M45 1124q18 68 72 139q92 124 155 171q215 154 392 192q80 17 151 17q86 0 160 -25q135 -45 229 -157.5t146.5 -260t61.5 -314.5q2 -38 2 -76q0 -307 -140 -529q-49 -80 -115 -136q61 -80 121 -161q116 -157 120 -162q9 -10 17 -23h-2q4 -10 4 -19q0 -13 -9 -23 q-16 -20 -33 -20q-8 0 -17 5l-2 2q0 4 -10 14q-4 4 -35 48q-81 115 -217 292q-12 -6 -23 -12q-162 -88 -317 -96q-19 -1 -39 -1q-132 0 -247 47q-132 54 -234.5 163.5t-163.5 254.5q-73 174 -73 363q0 149 46 307zM81 904q-3 -38 -3 -76q0 -117 30 -234 q39 -156 128.5 -276.5t223.5 -190.5q108 -56 240 -56q32 0 66 3q164 6 283 84q-103 124 -166 192q-19 27 5 56q23 27 52 2q105 -114 172 -201q88 78 149.5 199.5t78.5 285.5q7 59 7 117q0 103 -20 203q-31 155 -108.5 285t-198.5 199q-105 60 -242 60q-20 0 -42 -2 q-163 -10 -365 -137q-135 -84 -206 -221t-84 -292z" />
<glyph unicode="R" horiz-adv-x="931" d="M0 1499q0 82 2 91t12.5 21.5t22.5 18.5q32 16 43 -18v-6q111 65 241 64q51 0 104 -9q179 -33 307 -169q134 -143 134 -329q0 -407 -370 -591q-113 -56 -250 -87q149 -76 345.5 -188.5t256.5 -144.5q19 5 43 -23q2 -2 4 -2l-2 -2l4 -2q4 -11 4 -21q0 -14 -9 -26 q-15 -20 -44 -17q-80 43 -178.5 102.5t-199.5 118.5q-245 145 -388 193q0 -6 1 -36.5t2 -74t2.5 -93.5t2.5 -96q5 -114 9.5 -131t-5.5 -30.5t-24 -19.5q-10 -5 -18 -5q-20 0 -29 29q-2 131 -5.5 297t-6.5 338t-5 338t-4 297t-2 213zM80 1532l2 -979q28 -2 56 -2 q163 0 324 79q189 93 279 260q58 106 58 219q0 80 -29 163q-41 119 -120 192.5t-176 103.5q-73 23 -150 23q-26 0 -52 -2q-104 -10 -192 -57z" />
<glyph unicode="S" horiz-adv-x="1353" d="M14 1090q34 189 276 360q226 160 504 202q82 13 156 13q190 0 322 -84q20 -12 31.5 -34t25.5 -40q4 -12 4 -22q0 -14 -8 -24q-25 -31 -53 -11q-10 16 -19.5 33.5t-25.5 27.5q-110 62 -269 62q-72 0 -155 -13q-261 -39 -463 -168q-221 -140 -256 -306q-12 -59 -12 -110 q0 -91 40 -153q85 -131 332 -152q138 -12 219.5 -16.5t129.5 -8.5q104 -11 189 -27.5t144.5 -61.5t92 -108.5t32.5 -137t-54 -144.5t-134 -107.5t-170 -49.5q-59 -8 -138 -8q-97 0 -223 12q-78 8 -140 31.5t-83.5 36t-32.5 26.5q-18 20 -30 89q5 27 24 38q36 21 47 -14 l9 -47q129 -74 282 -94q67 -8 131 -8q139 0 263 40q110 36 154 116q17 29 17 73q1 19 -3 42q-10 73 -63.5 122t-130.5 73.5t-169 30.5t-184.5 9.5t-174 8.5t-151.5 30.5t-133.5 64.5t-103.5 94q-57 80 -57 199q0 54 11 115z" />
<glyph unicode="T" horiz-adv-x="1341" d="M3 1444q8 30 34 39q245 9 514.5 58.5t425.5 78.5t313 47h13q23 -9 23 -27q0 -7 -4 -16q-13 -31 -40 -35q-141 -16 -541 -90q1 -159 11 -521q8 -299 9 -476q0 -37 -1 -69q-1 -61 -1 -126q0 -130 3 -274q-9 -28 -27 -35q-9 -3 -16 -3q-20 0 -29 23v23q-4 139 -4 264 q0 62 1 120q1 44 1 99q0 166 -7 436q-9 360 -11 527q-391 -71 -641 -80q-28 3 -28 25q0 6 2 12z" />
<glyph unicode="U" horiz-adv-x="1263" d="M14 1294q3 166 13 342q4 16 16 28q13 13 25 16q3 1 6 1q8 0 15 -6q9 -8 9 -30q-8 -152 -8 -325t12 -345q36 -546 132 -715q55 -98 150 -148q61 -32 145 -33q52 0 112 13q164 34 285 144q132 122 166 388q17 139 17 297q0 149 -15 316q-15 156 -27 293q5 28 33 42t39 -22 q14 -164 30.5 -318.5t18.5 -303.5v-23q0 -317 -105 -571q-67 -157 -258 -255q-168 -86 -327 -86q-14 0 -27 1q-111 4 -216 110q-99 100 -128 205q-114 416 -114 893q0 46 1 92z" />
<glyph unicode="V" horiz-adv-x="1331" d="M8 1513q0 36 28 41q30 5 42 -26q-1 3 0 3q4 0 66 -158q71 -181 128 -321.5t207 -535.5q106 -291 144 -371q50 160 187.5 484.5t190 450.5t98.5 234q75 175 146 320q17 16 35 16q8 0 16 -4q17 -7 17 -25q0 -8 -4 -19l2 3q1 1 -59 -139q-70 -160 -125.5 -288.5t-115 -267 t-118.5 -277.5t-107 -258q-112 -282 -120 -328q-12 -37 -41 -38h-1q-28 0 -26 38q-63 130 -194.5 456t-210 532t-185.5 478z" />
<glyph unicode="W" horiz-adv-x="2076" d="M8 1513q0 36 28 41q30 5 42 -26v1q2 0 51 -118l494 -1266q47 149 168.5 439.5t160.5 378.5q0 6 13.5 13t30.5 8h6q37 0 40 -34q59 -152 168 -434l144 -371q522 1276 561 1360t61 129q17 16 35 16q7 0 15 -4q17 -7 18 -25q0 -8 -4 -19q-2 -4 -23 -53.5t-62.5 -146.5 t-263 -621.5t-255 -611.5t-39.5 -122q-12 -37 -41 -38h-1q-28 0 -26 38q-103 212 -338 815q-49 -115 -103 -241.5t-102 -245.5q-112 -282 -120 -328q-12 -37 -41 -38h-1q-28 0 -26 38q-63 130 -194.5 456t-210 532t-185.5 478z" />
<glyph unicode="X" horiz-adv-x="1189" d="M6 80q6 0 172 250t241 361.5t142 213.5q-9 28 -156 246.5t-198 297.5t-78 103q-8 18 -8 34q0 32 27 32q14 0 46.5 -35.5t151.5 -204.5q157 -222 266 -397q76 119 172 276.5t146.5 237.5t62.5 115q35 26 49 26h2q29 -9 13 -47q-29 -70 -131.5 -249t-166 -278t-100.5 -157 q41 -66 110.5 -177.5t152.5 -253.5q131 -221 241 -431q1 -6 1 -11q0 -28 -18 -36q-5 -2 -11 -2q-16 0 -33 22q4 -6 -25.5 45.5t-85 142.5t-128 208.5t-137 224t-116.5 190.5q-222 -343 -367 -541t-186 -249q-31 -18 -49 -4q-10 7 -10 20q0 11 8 27z" />
<glyph unicode="Y" horiz-adv-x="1249" d="M-2 1573q5 29 26 39q15 7 26 7q19 0 26 -22q133 -219 249.5 -435t249.5 -435q43 63 112 172t151 238t167.5 265t159.5 251q16 21 36 21q10 0 21 -5q19 -9 19 -28q0 -11 -6 -25q-141 -223 -226 -353t-147.5 -225.5t-114 -175.5t-88 -136t-49.5 -77q2 -117 11 -610 q0 -16 -10.5 -28.5t-24.5 -15.5q-5 -1 -10 -1q-24 0 -33 31q-2 82 -2 157v151q0 180 -11 312q-62 132 -266.5 473.5t-265.5 454.5z" />
<glyph unicode="Z" horiz-adv-x="1073" d="M16 35q2 18 482.5 748t484.5 730q-4 6 -397 6q-33 -1 -68 -1h-53q-409 0 -422 8q-19 4 -25 16q-3 6 -3 13q0 6 3 13q14 34 45 34q954 -8 968.5 -19t21 -26t6.5 -31.5t-5 -32.5t-931 -1415q706 34 807 34q15 0 16 -1q20 0 28.5 -12.5t5.5 -29t-14.5 -30.5t-27.5 -16 q-665 -25 -824 -25q-40 0 -48 2q-36 8 -50 35z" />
<glyph unicode="[" horiz-adv-x="266" d="M51 410q-3 265 2 1278q0 45 25.5 61t66.5 16t90.5 -8t96.5 -10q35 12 42 -15.5t-18 -48.5q-6 -2 -41.5 1.5t-76.5 6.5q-113 8 -121 3l12 -1823v-2q43 0 86 -2q46 -2 129 -5l27 -1l10 -2q12 -6 16 -17v-16q0 -10 -14 -25q-5 -14 -19 -14q-4 0 -8 -2l-280 8 q-17 17 -20 212.5t-5 404.5z" />
<glyph unicode="\" horiz-adv-x="851" d="M-27 1612q14 20 21.5 31.5t19.5 13.5q28 5 45 -33q10 -35 49 -120t357.5 -728t346.5 -696l24 -45q14 -35 -6.5 -47.5t-55.5 10.5q-725 1477 -801 1614z" />
<glyph unicode="]" horiz-adv-x="315" d="M-121 -158q6 15 27 19h6l45 2h18l86 4t86 2v2l13 1823q-13 9 -123.5 -2t-116.5 -9q-24 20 -19 40q9 35 44 24q47 2 96 10t90 8t66.5 -16t25.5 -61q8 -1865 -22 -1895l-281 -8q-4 2 -7 2q-14 0 -19 14q-15 15 -15 25v16z" />
<glyph unicode="^" horiz-adv-x="583" d="M15 1758q-7 17 3 40q52 77 131.5 169.5t83.5 96.5q23 33 49.5 31t41.5 -31q2 0 29.5 -31.5t63.5 -72.5t71.5 -82t54.5 -59q10 -27 -5.5 -44.5t-43.5 5.5q-29 31 -63 65.5t-63.5 66.5t-52 56.5t-30.5 32.5q-10 0 -72.5 -78t-87.5 -107q-91 -104 -110 -58z" />
<glyph unicode="_" horiz-adv-x="843" d="M7 39q8 30 34 39q53 2 149 2h202l351 2h17l14 -6l6 -6q0 -2 2 -5t2 -18q-12 -37 -41 -41h-14l-349 -2h-200q-96 0 -147 -2q-34 4 -26 37z" />
<glyph unicode="`" horiz-adv-x="397" d="M-2.5 1882q14.5 27 43.5 27q4 0 49 -22.5t100 -49.5q139 -69 146 -76q18 -6 21 -20.5t-3 -26.5q-18 -35 -49 -26q-83 50 -185 98.5t-110 48.5q-27 20 -12.5 47z" />
<glyph unicode="a" horiz-adv-x="659" d="M-6 289q-1 15 -1 30q0 144 69 319q52 136 133 206q43 37 97 45q24 4 44 3q25 0 42 -5q32 -10 53.5 -29.5t38.5 -43t46 -40.5q12 23 34.5 30t33.5 -22q11 -218 15.5 -410t8.5 -270q6 -10 6 -24l-2 -49q-8 -27 -32 -38q-7 -3 -13 -3q-15 0 -24 20h-2v8l-13 291 q-18 -57 -45.5 -99.5t-58.5 -76t-69 -65.5q-92 -76 -151.5 -76t-101 26.5t-64.5 69.5q-39 70 -44 203zM66 400q-4 -37 -4 -73q0 -81 22 -153q48 -106 112 -106q12 0 24 3q80 22 135 76t89 125q62 134 62 306l-4 116q-25 10 -44.5 30.5t-39.5 39.5q-51 51 -102 51 q-59 0 -118 -67q-36 -43 -65.5 -109.5t-45 -123t-21.5 -115.5z" />
<glyph unicode="b" horiz-adv-x="770" d="M12 1546q4 32 37 46q5 2 10 2q7 0 13 -4q10 -7 12 -29q7 -215 7 -430v-53v-97q0 -193 3 -387q23 82 70 160q6 12 20.5 23t29.5 23q21 15 44 27q55 37 113 37q50 0 103 -28q99 -53 168 -180q67 -122 67 -228t-34 -182t-89 -130q-54 -54 -122 -78q-42 -15 -86 -15 q-26 0 -52 6q-118 21 -157.5 47t-49.5 55l-10 31q-5 -48 -11 -76v-22q0 -3 -1 -4q-2 -2 -6.5 -26t-28.5 -36q-7 -3 -14 -3q-15 0 -25 21v26q0 -29 6 19q2 73 2 144q0 54 -1 107q-3 124 -5 312.5t-2.5 432t-10.5 489.5zM117 297q20 10 30.5 -17t15.5 -52t27 -59 q21 -33 67 -53q42 -18 89 -18h10q52 2 103 24.5t92 60.5q86 79 86 192v10q0 79 -65 205q-66 130 -155 178q-33 18 -70 18q-13 0 -27 -2q-52 -10 -95 -58t-61.5 -96t-27.5 -104q-14 -84 -19 -229z" />
<glyph unicode="c" horiz-adv-x="733" d="M4 420q0 110 26.5 202.5t70.5 161.5q45 68 101 107q54 37 112 37h6q137 -4 239 -201q0 -34 -31 -49q-28 -14 -41 24q-81 106 -149 130q-29 10 -55 10q-35 0 -65 -18q-52 -32 -86 -109.5t-44 -169.5q-4 -40 -4 -80q0 -53 7 -107q13 -94 56 -163.5t116 -101.5 q35 -15 78 -15q47 0 103 18q63 20 117.5 61.5t108.5 78.5q34 12 42 -16q2 -7 2 -13q0 -20 -20 -35q-185 -132 -243 -158q-59 -26 -93 -28h-13q-31 0 -75 7q-54 9 -106.5 62.5t-88.5 120.5q-71 134 -71 244z" />
<glyph unicode="d" horiz-adv-x="774" d="M24 248q-14 68 -14 136q0 108 35 218q60 186 178 238q49 30 97 29q44 0 86 -25q38 -23 73 -53.5t70 -53.5q4 54 10 205q-6 135 -6 266v336q0 15 22 37q12 8 21 8h8q2 0 10 -4q4 0 4 -6q5 -3 5 -6.5t2 -7.5v-346q-1 -30 -1 -60q0 -207 24 -399q28 -220 48.5 -358 t38.5 -265q20 -4 20.5 -29.5t0.5 -32t-3 -28.5t-1 -24h-2v-7q-8 -27 -25 -35q-11 -5 -19 -5q-18 0 -26 22v6q-25 141 -39 282.5t-45 280.5l-12 -47q-55 -211 -100.5 -304t-86.5 -143q-68 -83 -144 -83q-31 0 -63 14q-127 54 -166 244zM92 385q8 -139 36 -209q26 -68 68 -86 q26 -11 54 -12q15 0 31 4q43 10 83 43t72 116q67 171 105 421q-4 -2 -8 -2q-19 0 -51 28q-40 34 -70 54q-60 44 -110 44q-10 0 -20 -2q-58 -10 -97.5 -48t-61 -94t-28.5 -124q-4 -43 -4 -85q0 -24 1 -48z" />
<glyph unicode="e" horiz-adv-x="661" d="M-2 453q-3 6 -3 12.5t3 13.5q0 276 158 367q43 24 96 25q43 0 91 -17q106 -35 155 -116q26 -42 26 -82q0 -45 -32 -87q-77 -100 -321 -119q-60 -4 -110 -8v-22q0 -185 82 -299q39 -55 103 -65q22 -4 44 -4l86 14q64 20 118.5 62t76.5 89q20 28 38 22q24 -8 24 -32 q0 -6 -2 -14q-39 -78 -103.5 -132.5t-140.5 -76.5q-46 -13 -90 -13q-115 0 -209 90q-52 52 -74 185q-10 55 -12 110.5t-4 96.5zM63 518q59 6 135 9t120.5 15.5t68 33t49.5 36.5q2 16 8 32q3 8 2 16q0 8 -2 16q-16 55 -64 83.5t-104 30.5h-5q-53 0 -101 -26 q-50 -27 -73.5 -91.5t-33.5 -154.5z" />
<glyph unicode="f" horiz-adv-x="612" d="M-16 743q62 75 95 75q4 0 7 -1q19 -5 37 -5q14 0 27 3q-3 74 -3 141q0 282 51 443q29 94 86 152q52 52 102 52q6 0 12 -1q55 -7 101 -49t74.5 -105.5t28.5 -122.5v-6q-16 -47 -41 -47h-6q-8 0 -18 10l-7 18v7q0 26 -17 75.5t-33.5 80t-37.5 49.5q-24 21 -49 21 q-28 0 -59 -28q-90 -80 -108 -276q-11 -121 -11 -226.5t4 -181.5q105 9 133 33q14 12 26.5 12t18.5 -8q18 -24 0 -51q-41 -38 -174 -64q0 -205 10.5 -350t16.5 -239q4 -56 4 -94q0 -25 -2 -43q-4 -44 -35 -46q-2 -2 -5 -2q-9 0 -16 33q-8 41 -14 110.5t-10 159.5t-7 178 q-6 165 -11 287q-44 -3 -78 -3q-58 0 -92 9z" />
<glyph unicode="g" horiz-adv-x="675" d="M-36 -266q7 43 38 53l57 12q36 0 34 -31q-2 -29 -30 -42l-14 -2q69 -65 221 -88q45 -6 86 -6q86 0 152 28q76 35 76 198q0 94 -25 230q-16 86 -20 137q-39 -83 -79 -120t-76 -61q-87 -58 -138 -58q-23 0 -45.5 9t-42.5 15t-42 34t-40 62q-38 68 -52 130q-21 98 -21 181 q0 90 25 161q15 45 37.5 104.5t76 107.5t118.5 67q45 13 88 13q94 0 184 -59q12 -10 13.5 -24.5t-6.5 -24.5q31 4 60.5 -14.5t37.5 -67.5q3 -20 3 -45q0 -38 -7 -90q-12 -86 -39 -172l12 -97q16 -139 34 -279q11 -89 11 -183q0 -54 -4 -109q-7 -82 -127 -117 q-79 -23 -178 -23q-81 0 -174 15q-60 10 -104 31.5t-62 38.5q-38 37 -38 75v11zM85 390q3 -93 31.5 -177t82.5 -133q39 -17 75 -17q79 0 142 81q55 70 104 231l-12 92q-4 29 -12 59q-24 83 -24 135.5t24 75.5q-2 0 -2 1t-2 1q-86 49 -155 49q-14 0 -27 -2q-79 -12 -130 -68 t-74 -146q-21 -79 -21 -161v-21zM542 660q3 -11 6 -21t3 -12l14 -64l4 60q1 8 1 14q0 35 -25 47q-2 0 -2 1t-3 1q-2 0 -2 -4q0 -8 4 -22z" />
<glyph unicode="h" horiz-adv-x="757" d="M-7 1412v19q0 37 3 66q4 37 14 52t24 19q6 1 10 1q7 0 12 -3q25 -13 7 -50q4 -74 7.5 -134.5t6.5 -119t5.5 -119t7.5 -133.5l21 -336q122 185 250 185q11 0 23 -1q118 -15 214 -180q86 -148 116 -340q11 -74 12 -134q0 -100 -32 -163q-8 -17 -22 -23q-8 -3 -14 -4 q-5 0 -9 2q-25 10 -11 54q11 36 11 105q0 15 -1 32q-3 92 -25.5 194.5t-62.5 193.5t-97 138q-42 34 -93 34q-19 -1 -39 -5q-75 -18 -165 -131q-55 -69 -55 -247q0 -93 15 -216q6 -51 6 -80q0 -13 -1 -22v-15h-6q-12 -23 -33.5 -27t-32.5 27v2q-4 258 -20 518t-22.5 392 t-9.5 166t-6 81t-5 100.5t-3 101.5z" />
<glyph unicode="i" horiz-adv-x="311" d="M23 788q5 28 24 39q36 20 47 -14q17 -387 84 -737q12 -9 12 -23q0 -9 -6 -21q-14 -30 -36 -33h-4q-20 0 -29 28q-68 310 -92 761zM38 1138q12 33 39 33t35 -10q6 -7 7 -17q0 -4 -1 -8q-3 -14 -14.5 -26t-27.5 -14h-13q-28 6 -28 27q0 7 3 15z" />
<glyph unicode="j" horiz-adv-x="286" d="M-236 -276q2 11 19.5 35t31 40t27 19.5t22.5 -2.5q22 -14 5 -54q-10 -16 -22.5 -32.5t-14.5 -36.5q40 -40 146 -45h21q92 0 120 41q28 39 28 127v37v49q0 180 -19 354q-47 417 -56 557q5 29 24 39q36 19 47 -14q12 -201 37 -398.5t31 -320.5t10 -177q3 -35 3 -71 q0 -18 -1 -36q-5 -131 -55 -193q-34 -50 -152 -67q-35 -5 -67 -5q-70 0 -123 24q-68 30 -68 91q0 18 6 39zM104 1184l19 22q13 13 24 13q3 0 5 -1q14 -4 20 -14q19 -6 19 -20q0 -4 -2 -9q-12 -39 -42 -45q-8 0 -15 -1h-5q-5 0 -12 1q-16 12 -16 31q0 10 5 23z" />
<glyph unicode="k" horiz-adv-x="727" d="M23 774v58q0 120 6 278q8 198 12 397q2 16 14.5 28.5t24.5 16.5q4 1 9 1q7 0 13 -4q10 -7 11 -29q-5 -198 -13 -392q-6 -132 -5 -266q0 -63 1 -127l6 -170q45 33 103.5 77t112.5 84q130 95 156 119t45.5 9.5t0.5 -51.5q-3 -14 -107 -88q-211 -150 -282 -209q10 -8 47 -35 t88 -64.5t109.5 -81.5t114.5 -86q129 -98 169 -133q3 2 7 2q17 0 47 -32q3 -8 3 -16q0 -17 -11.5 -33.5t-28.5 -16.5q-9 0 -19 4q-23 23 -234.5 180.5t-311.5 233.5q6 -86 12 -168t10 -166q4 -12 4 -23t-3 -21.5t-12 -21t-20 -14.5q-6 -2 -11 -2q-17 0 -25 25v4 q-41 595 -43 733z" />
<glyph unicode="l" horiz-adv-x="278" d="M18 1548q5 28 24 39q14 7 24 7q17 0 24 -21q5 -404 22 -657q16 -252 32 -463q9 -128 10 -259q0 -84 -4 -169q-9 -28 -28 -35q-8 -3 -15 -3q-20 0 -29 23v23q3 74 3 148q1 133 -9 263q-14 202 -28 394q-21 314 -26 710z" />
<glyph unicode="m" d="M18 788q5 27 24 39q36 21 48 -14q10 -129 41 -250t55 -248q29 162 83.5 272.5t110.5 170t130 65.5h6q58 1 114 -79q58 -84 62 -164q27 78 77 151.5t111 110.5q48 29 91 29q87 0 153 -119q75 -125 100 -376q9 -93 9 -173q0 -106 -16 -191q-14 0 -24.5 -1t-21.5 9 q-14 72 -18 177.5t-16.5 216t-39 210t-85.5 158.5q-20 20 -46 20q-20 0 -44 -12q-56 -28 -106 -115t-80 -231q-19 -94 -19 -211q0 -63 6 -133l-4 -12q0 -2 -4 -10q-10 -16 -23 -23h-2q-2 -2 -8 -2h-12q0 2 -4 2q-15 13 -15 33.5t-1 99t-7 172t-22.5 184.5t-46.5 143 q-29 49 -74 49h-6q-48 -3 -106 -81.5t-89 -159.5t-49 -165q-33 -148 -33 -291q1 -19 -15 -31q-12 -9 -27 -9q-5 0 -11 1q-17 11 -25 31q-6 144 -41 309l-54 258q-20 92 -26 190z" />
<glyph unicode="n" horiz-adv-x="776" d="M20 831q4 30 38 45q8 3 14 3q17 0 20 -27v-8q0 -189 4 -381q40 138 108 243q21 33 64 76q42 44 92 66q35 16 67 15q13 0 25 -2q42 -9 80.5 -48t73.5 -84t63.5 -129t45 -185.5t16.5 -202.5t-33 -171q-2 -2 -2 -6h-2q-12 -29 -33 -27q-38 4 -30 41q25 69 25 165 q0 67 -12 147q-27 177 -89 305q-48 95 -118 110q-15 3 -30 3q-61 -1 -110 -61q-61 -76 -94 -156.5t-49 -166.5q-24 -124 -40 -392q-1 -17 -11.5 -40t-32.5 -26h-4q-20 0 -29 28q-6 47 -6 107v151z" />
<glyph unicode="o" horiz-adv-x="616" d="M1 261v29q1 76 9 150q10 88 17.5 113t30 79t56.5 108q77 127 145 127q5 0 11 -1q94 -23 184 -154q79 -115 120 -262q21 -76 21 -135q1 -54 -17 -94q-36 -84 -120 -141q-83 -56 -173 -68q-20 -3 -40 -3q-67 0 -128 30q-113 56 -116 222zM67 398q-1 -16 -1 -33 q0 -57 12 -107q14 -64 46 -110t82 -59q20 -5 41 -5q102 0 236 119q27 29 27 90t-18.5 133t-51 143.5t-71.5 123.5q-66 87 -115 87q-20 0 -37 -14q-51 -41 -77.5 -100.5t-47.5 -125.5t-25 -142z" />
<glyph unicode="p" horiz-adv-x="724" d="M8 776q5 28 24 39q37 20 48 -14q4 -154 12 -303q12 78 26.5 148.5t43.5 109.5t48 72.5t57 54.5q31 17 65 17h14q41 -5 76 -28q54 -34 113 -124q6 -8 14 -23.5t19 -34.5q14 -25 33 -80t29.5 -80.5t15.5 -45t8 -45t16 -103.5q3 -21 3 -44q0 -58 -24 -122 q-33 -88 -97.5 -146.5t-152.5 -75.5q-23 -5 -47 -5q-85 0 -186 59q-27 16 -45 33q0 -224 14.5 -295.5t16.5 -86.5t-10.5 -45t-25.5 -38q-6 -4 -11.5 -4t-10.5 4q-10 8 -17 23.5t-10 18.5t-3.5 51t-2.5 122t-4 161t-10 210t-21.5 288.5t-17.5 331.5zM133 339q-1 -32 -1 -62 q0 -60 5 -113q25 -49 76 -86t109 -52q32 -7 63 -7q26 0 53 5q56 13 92.5 68t51.5 116q14 55 14 110v14q-3 107 -64 246q-6 12 -19 39.5t-31.5 59.5t-42 64.5t-49.5 54.5q-34 28 -64 28q-20 0 -39 -13q-139 -112 -154 -472z" />
<glyph unicode="q" horiz-adv-x="669" d="M29 53q-31 72 -31 151q0 117 66 252q74 153 243 341q73 81 157 90q11 1 21 1q69 0 99 -52q30 -23 30 -207q0 -35 -1 -77q-3 -110 -9 -239t-8 -251v-55q0 -243 41 -331q12 -29 47 -40q14 -4 27 -4q20 0 38 10q30 16 54 38.5t53 43.5q34 12 42 -16q2 -6 2 -12 q0 -21 -22 -38q-28 -21 -67 -53.5t-76 -46.5q-32 -11 -59 -11q-87 0 -121 119q-27 91 -27 274q0 98 8 222q3 39 3 67q0 21 -2 35q-83 -127 -259 -247q-72 -49 -135 -49q-23 0 -44 6q-44 14 -70 79zM72 227q-3 -28 -3 -51q0 -94 54 -120q17 -8 38 -8q65 0 161 83 q143 124 204 264q23 34 23 132v16q-4 210 -26.5 231.5t-46.5 25.5q-7 1 -15 1q-16 0 -31 -5q-45 -16 -88 -58t-90 -102.5t-84 -127.5q-81 -148 -96 -281z" />
<glyph unicode="r" horiz-adv-x="532" d="M13 294q3 62 3 100v411q2 16 14 29q14 12 26 16q5 1 8 1q7 0 14 -4q10 -7 10 -30v-86q57 109 154 109h4q49 0 123.5 -13.5t109.5 -33.5q16 -11 16 -25q1 -7 -3 -14q-10 -23 -31 -33q-37 -9 -43 10q-92 37 -156 37q-84 0 -118 -64q-56 -104 -56 -272q0 -98 11.5 -170 t18.5 -115.5t11 -71.5t0 -40q-8 -24 -8 -17q-11 -20 -29 -27q-4 -2 -8 -2q-14 0 -27 17q-46 68 -46 226q0 30 2 62z" />
<glyph unicode="s" horiz-adv-x="770" d="M-3 144q-1 5 -1 12q0 30 22 71q24 32 48 17q23 -14 6 -54q0 -4 -4 -8q41 -43 121.5 -77.5t168.5 -46.5q34 -5 67 -5q51 -1 98 11q77 20 110 88q3 9 3 18q0 26 -24 54q-34 38 -89.5 80t-124 85t-128.5 88q-144 107 -147 174v7q0 90 93 155q81 55 177 55h13q108 -5 131 -80 q0 -25 -17 -40q-33 -27 -51 4q-14 37 -54 45q-16 3 -32 3q-25 0 -52 -8q-44 -12 -83 -39.5t-51 -62.5v-7q0 -45 86 -113q44 -36 157 -114q196 -137 258 -202q20 -20 28 -59q2 -12 2 -23q0 -24 -11 -41q-95 -153 -290 -153h-17q-170 7 -363 108q-45 24 -50 58z" />
<glyph unicode="t" horiz-adv-x="495" d="M33 799q35 8 71.5 12t71.5 8q-14 254 -14 430q-4 6 3 13.5t19 11.5q10 4 18 4q18 0 31 -16q0 -201 17 -437q18 2 47 8.5t59 12.5q53 11 85 11q9 0 16 -1q22 -9 22 -26q1 -4 -1 -10q-8 -24 -32 -38q-39 -11 -190 -34l49 -689v-12q0 -34 -29 -49q-9 -4 -16 -4q-17 0 -27 24 v5q-18 180 -21 359t-30 357q-53 -6 -94 -9t-56 -6q-14 -3 -24 6q-9 8 -9 20q0 35 34 49z" />
<glyph unicode="u" horiz-adv-x="677" d="M1 779q1 50 13 79q6 16 17 16q9 0 22 -12q25 -64 27 -215t5 -238t19 -159q37 -160 154 -164q135 68 194.5 153t77.5 177q12 64 12 129q0 28 -2 55q-8 92 -8 174q4 23 19.5 38t40.5 5l10 -8l2 2v-4q14 -14 14 -101l-2 -141q0 -134 20.5 -323t22.5 -217v-2h-2 q-10 -30 -26 -34q-8 -2 -14 -2q-20 0 -29 21v4l-19 295q-12 -51 -58 -114.5t-109 -112.5q-107 -84 -194 -84q-35 0 -67 14q-135 57 -135 572q0 33 -3 90q-2 43 -2 82v25z" />
<glyph unicode="v" horiz-adv-x="673" d="M18 810q10 12 20 16q10 5 17 5q14 0 19 -16q61 -67 109 -185q57 -140 173 -505q35 82 56 168q65 274 172 500q19 23 36 23q15 0 27 -19q2 -9 2 -17q0 -23 -16 -41q-14 -35 -34.5 -92t-44.5 -121q-65 -175 -84 -260.5t-30 -119.5q-29 -82 -75 -115q-14 -7 -24.5 -7 t-18.5 7q-33 47 -48.5 102t-42 130t-57.5 171t-54.5 150.5t-40 77t-32.5 46.5q-17 24 -29 44q-12 19 -11 31q0 14 11 27z" />
<glyph unicode="w" horiz-adv-x="960" d="M-2 764q-2 6 -2 13q0 9 5 21q9 18 31.5 29t48.5 -2.5t42 -65.5t27.5 -124t18.5 -153t13 -152q14 -165 25 -176q16 49 41.5 137t58.5 180q84 235 142 293q12 12 36.5 16t40.5 -10q35 -74 63.5 -152.5t59.5 -162.5q82 -222 162 -359q12 184 18 729q2 16 14.5 28.5 t24.5 16.5q6 2 11 2q22 0 22 -34l4 -245q0 -438 -55 -579q-15 -40 -38 -40q-9 0 -19 6q-40 20 -143 294q-29 76 -58 153q-72 192 -113 269q-53 -70 -91 -187.5t-57.5 -184t-30.5 -101t-18.5 -61.5t-15.5 -54q-18 -59 -49 -92q-18 -16 -32.5 -16t-24.5 16q-26 22 -40 152.5 t-22 219.5t-17 167q-21 179 -42 199q-2 2 -3 0t-3 -2q-29 -4 -35 12z" />
<glyph unicode="x" horiz-adv-x="800" d="M31 -16q-2 7 -2 14q0 15 12 31l14 16q90 90 179.5 177t166.5 188q-172 272 -264 393q-20 28 5 55q12 13 26 13q13 0 27 -11q16 -19 51 -73t82 -125.5t125 -190.5q149 192 241 291q14 12 26.5 12t18.5 -8q9 -12 9 -25t-9 -26q-68 -72 -128 -147.5t-122 -153.5 q78 -113 138.5 -197t91.5 -141q26 -48 26 -76q0 -42 -55 -45q-15 0 -50 65q-65 124 -96.5 169t-56 83.5t-49.5 77.5l-356 -373q-14 -10 -25 -10h-10q-10 2 -16 17z" />
<glyph unicode="y" horiz-adv-x="741" d="M0 803q5 29 24 39q13 7 23 7q18 0 25 -22q8 -53 12 -128.5t12 -159.5t22.5 -168t43.5 -153q64 -154 188 -161q10 -1 21 -1q73 0 142 44q69 43 103 109q9 60 9 123q0 49 -5 102q-14 117 -21 184q-4 35 -4 74q0 33 3 68q4 25 15.5 41t30.5 -3t28.5 -47t12.5 -60 q5 -53 6 -105.5t4 -132.5t4 -175v-32q0 -81 -4 -165q-5 -101 -18 -189q-30 -203 -95 -248t-148 -54q-45 -6 -87 -6q-38 0 -75 4q-79 9 -140.5 23t-80.5 14q-28 3 -28 24q0 12 10 31q6 11 16 19q10 4 8 8t10 -2t67.5 -22.5t126.5 -22.5q32 -3 61 -3q216 0 264 153 q30 93 30 176v94q-160 -111 -278 -111q-74 0 -132 43q-162 123 -194 587q-8 116 -12 204z" />
<glyph unicode="z" horiz-adv-x="763" d="M-5 816q13 34 46 34l386 6q241 0 271 -20q23 -18 23 -45q0 -51 -21 -70q-53 -57 -117.5 -129t-131 -145.5t-129 -142t-112.5 -122.5q-102 -109 -113 -109q-1 0 -1 1q46 -12 98 -12q32 0 66 4q90 12 146.5 22t104.5 18q74 14 103 14q13 0 17 -3q20 0 28.5 -12.5t5.5 -29 t-14.5 -30.5t-27.5 -16q-33 4 -71 4q-54 -1 -118 -9q-106 -14 -167.5 -22t-112.5 -9h-10q-108 0 -128 42q6 50 312 395q142 159 227.5 248.5t89.5 89.5q-6 10 -76 10q-17 0 -39 -1q-106 -3 -182 -6t-144 -5q-45 -1 -79 -1q-89 0 -105 9q-18 4 -24 16q-3 7 -3 14q0 6 2 12z " />
<glyph unicode="{" horiz-adv-x="462" d="M-8 503.5q6 20.5 22 35.5q257 141 230 389q-11 102 -47.5 249.5t-41.5 214t-5 123t21.5 102.5t40.5 75q51 79 224 86q127 5 148 -43q12 -32 -14 -57q-11 -9 -24.5 -9t-21.5 13q-12 18 -53 18l-55 -2q-104 -4 -136 -32t-43.5 -61.5t-16.5 -112t21.5 -181.5t48 -202 t24.5 -182t-15 -156q-37 -148 -176 -247q112 -14 145 -106q35 -95 16 -240q-19 -153 -13.5 -226t26 -98.5t58.5 -23.5t81 12.5t84 21.5t60 15q35 0 33 -31q-2 -27 -29 -43q-31 -6 -69 -19t-78 -24q-167 -43 -211 62q-36 83 -23 220q16 177 14 237.5t-17 93.5t-37 47 t-48.5 21.5t-54 11.5t-54.5 12q-20 16 -14 36.5z" />
<glyph unicode="|" horiz-adv-x="296" d="M82 1653q2 16 14.5 28.5t24.5 16.5t22.5 -3t10.5 -30l4 -1798q0 -41 -17.5 -44t-44.5 13q-7 15 -8.5 250.5t-2.5 399.5q-3 494 -3 1167z" />
<glyph unicode="}" horiz-adv-x="542" d="M-152 -160q-3 39 33 39q18 -4 59.5 -15t84.5 -22q108 -26 134 5.5t30 85t-0.5 116t-12.5 129t-5 128.5q7 141 87 194q31 18 80 24q-202 143 -192 403q6 121 74 383q26 103 21 182t-16.5 112.5t-34.5 53.5q-41 36 -145 40l-55 2q-42 0 -49 -14q-23 -31 -49 -8 q-27 25 -15 57q21 48 147 43q111 -4 156 -27q49 -29 68.5 -58.5t41 -75.5t21.5 -102.5t-5 -123t-25.5 -149.5t-38 -162t-25.5 -152.5t9 -141.5q39 -147 220 -247q16 -14 22.5 -35t-13.5 -37q-27 -8 -54.5 -12t-54.5 -11q-61 -17 -81.5 -59.5t-21.5 -98t4 -116.5t11 -125.5 t1 -120.5q-11 -129 -87 -164q-67 -28 -226 26q-38 13 -69 19q-28 14 -29 35z" />
<glyph unicode="~" horiz-adv-x="815" d="M23 593q12 56 61 130q16 29 39.5 50.5t57.5 53t68 37.5t59.5 -10t47 -50t40.5 -70q50 -91 84 -115t68 -8t60 47q60 75 60 139q2 16 14 28.5t24.5 16.5t22.5 -3.5t9 -45t-26.5 -93t-66.5 -97.5q-97 -99 -205 -56q-49 18 -95 120q-17 38 -33.5 71.5t-39 45t-55.5 -9 t-75.5 -84t-49 -93t-20 -40t-25.5 -11.5t-21.5 7t-2.5 40z" />
<glyph unicode="&#xa1;" horiz-adv-x="278" d="M32 1379q7 33 50 44q16 18 39.5 15.5t17.5 -34.5q-11 -58 -73 -58q-41 0 -34 33zM49 1192q0 34 31 49q29 15 41 -24q-6 -203 17 -456q46 -519 50 -677q-5 -29 -24 -39q-36 -19 -47 14q-18 287 -39 566.5t-29 566.5z" />
<glyph unicode="&#xa2;" horiz-adv-x="796" d="M3 834.5q-5 70.5 9 135.5q33 147 144 210q80 45 170 63q-7 131 -7 264q5 28 24 39q37 20 48 -14q0 -69 6 -279q86 6 153.5 -10t100.5 -39q31 -12 21 -42q-9 -29 -41 -34q-122 52 -230 52q3 -72 31 -631q98 9 262 92q36 0 34 -31q-2 -30 -30 -43q-119 -81 -264 -94 q10 -195 12 -385q0 -34 -30 -49q-30 -14 -41 24q-2 203 -13 410q-87 4 -153.5 34t-110 80t-67 113.5t-28.5 134zM90 991q-55 -156 35 -303q75 -123 235 -139q-8 156 -17 311.5t-15 310.5q-74 -12 -144 -57q-68 -47 -94 -123z" />
<glyph unicode="&#xa3;" horiz-adv-x="847" d="M-3 882q12 33 46 33h143q-43 151 -32.5 215t41 113t87 97t119 54.5t123.5 -10.5q112 -33 185 -106q18 -6 21 -20.5t-3 -26.5q-17 -35 -49 -27q-68 80 -155 103.5t-158.5 -2t-112.5 -99.5q-55 -98 12 -291h256q41 0 34 -35q-3 -14 -14.5 -26t-27.5 -14h-219 q49 -131 45 -196.5t-24.5 -114t-65.5 -103.5q41 2 79 -21.5t70.5 -56t52 -53.5t41 -28t55.5 -4t70 11q89 18 101 43q25 33 48 17q22 -15 6.5 -47.5t-40 -46t-66.5 -27.5t-84 -22.5t-79 -2.5q-72 10 -148 88q-84 92 -136 76q-61 -19 -87 -45l-8 -4q-35 -8 -38 21q-2 26 21 47 v2q7 0 35 20q18 25 41 50.5t44 52.5q47 65 45 121q-4 84 -60 223h-188q-38 8 -26 42z" />
<glyph unicode="&#xa5;" horiz-adv-x="841" d="M14 1346q4 26 26 37q41 23 52 -13q45 -74 71.5 -119t46 -76.5t33 -57t33 -57.5t46 -77t71.5 -119q43 63 69.5 103.5t57.5 85.5q68 98 193 293q24 32 57 16q31 -15 12 -53q-155 -246 -244 -369t-110 -154v-18q48 2 120 8q122 10 167.5 10t54 -10t5.5 -24q-8 -37 -42 -41 q-86 -4 -152.5 -9.5t-150.5 -11.5l2 -151q33 4 78 6t86 4t71.5 3t43 8t19.5 -2t5 -26q-6 -47 -39 -51q-6 -4 -35.5 -5t-69.5 -3t-82 -4t-75 -6l4 -262q0 -16 -10 -28.5t-24 -15.5q-31 -7 -44 29l-2 136v133q-142 -17 -266 -21q-35 4 -26 37q9 31 34 39q94 3 258 18v78 q0 33 -2 80l-136 -8t-136 -6q-34 4 -26 36q7 29 34 40q68 2 262 14l-6 20q-49 104 -113 201q-127 192 -221 363z" />
<glyph unicode="&#xa6;" horiz-adv-x="282" d="M82 868v678q2 16 14.5 28.5t24.5 16.5t22.5 -3t10.5 -29l2 -984h-72q-2 117 -2 293zM84 283l72 -4l2 -877q0 -41 -17.5 -44t-44.5 13q-7 15 -9 250q-3 601 -3 662z" />
<glyph unicode="&#xa7;" horiz-adv-x="1366" d="M10 535q10 53 24.5 86.5t49.5 72.5q-110 118 -70 342q18 104 101.5 202.5t202 177.5t261 130t281.5 63.5t263 -23.5t206 -132q10 -29 -4 -46q-26 -32 -53 -11q-130 145 -415 119q-267 -24 -495 -164q-108 -66 -184 -149t-94 -173q-35 -164 28 -260q84 -130 332 -152 q98 -9 199.5 -14.5t149.5 -10.5q83 -9 178.5 -26.5t155 -62.5t92 -108.5t32.5 -137t-40 -127t-103 -121.5q100 -66 129 -176q32 -120 -39 -217q-144 -185 -492 -170q-94 4 -175 12t-143 31.5t-83.5 36t-32.5 25.5q-18 21 -30 90q5 27 24 38q36 21 47 -14l9 -47 q129 -74 282 -93q213 -28 394 32q108 35 154 115q24 42 13.5 115t-63.5 122t-130 73.5t-169 30.5t-184.5 9.5t-174.5 8.5t-151.5 30.5t-133 64.5t-103.5 94q-83 115 -46 314zM80 528q-35 -164 28 -260q85 -131 332 -152q138 -12 219.5 -16t129.5 -9q104 -11 165.5 -23.5 t81.5 -20.5q95 76 128 169q12 32 7 60q-30 218 -364 240q-92 6 -185 9q-239 8 -329 40.5t-152 77.5q-29 -25 -40 -47.5t-21 -67.5z" />
<glyph unicode="&#xa8;" horiz-adv-x="421" d="M4 1737v8q6 37 37 47l29 2q31 0 33.5 -27.5t-7.5 -40.5q-11 -15 -61 -32h-2q-17 5 -29 43zM72 1784l2 -2v2h-2zM250 1737v8q6 37 37 47l28 2q31 0 34 -27.5t-7 -40.5q-11 -15 -61 -32h-2q-17 5 -29 43zM317 1784l2 -2v2h-2z" />
<glyph unicode="&#xad;" horiz-adv-x="702" d="M22 696q8 31 33 39q171 6 260 12q189 11 287 11h16l15 -6l6 -7q0 -2 2 -5t2 -17q-12 -37 -41 -41h-14q-85 0 -216 -7q-223 -12 -325 -16q-35 4 -25 37z" />
<glyph unicode="&#xb4;" horiz-adv-x="399" d="M1 1740.5q3 14.5 22 20.5q14 14 130.5 69.5t139 67t24.5 11.5q29 0 43.5 -27t-12.5 -47q-15 0 -105.5 -47t-136 -70.5t-53.5 -29.5q-32 -8 -49 26q-6 12 -3 26.5z" />
<glyph unicode="&#xb5;" horiz-adv-x="923" d="M25 768q22 63 93 31q17 -8 34 -15q52 -427 182 -552q35 -33 78 -33q145 0 286 409q25 70 42.5 131.5t25.5 86t19.5 33.5t22.5 10q28 3 28 -41.5t-19 -112.5q-18 -268 45 -617q12 -4 17.5 -19.5t-9.5 -45.5q-29 -24 -53 -8q-45 77 -71 353q-7 66 -9 109 q-12 -23 -32.5 -63.5t-46 -87.5t-57.5 -94t-67 -80q-81 -78 -150 -43t-116 89t-80 120q-49 100 -88 288q10 -311 28.5 -618t23.5 -619q0 -33 -31 -49q-30 -15 -41 25q-2 199 -20 542q-32 648 -35 871z" />
<glyph unicode="&#xb8;" horiz-adv-x="575" d="M-2 -430q-11 33 31 37q26 0 152 9t175 16q119 15 127 26q-60 47 -242 47q-44 0 -73 -2q-45 6 -49 49q14 68 14 120q0 92 -4 148q-4 2 74 -8q4 -50 4 -107.5t-6 -123.5q220 0 313 -69q41 -31 47 -81q-13 -89 -409 -95q-70 -1 -109 -3q-16 2 -28.5 13.5t-16.5 23.5z" />
<glyph unicode="&#xbf;" horiz-adv-x="843" d="M39 197q-66 85 4 233q60 128 147 193q25 18 53.5 34.5t57.5 34.5q66 39 98 82q33 57 33 154l-12 159l-2 7q0 34 30 49q29 14 41 -27q43 -293 -45 -387q-47 -49 -105 -88t-112.5 -80t-94.5 -94t-45 -119.5t17.5 -107.5t61.5 -69q82 -59 182 -50q147 10 232.5 96t136.5 252 q-8 25 6 43q27 34 51 12q8 -213 -126 -356q-133 -141 -316 -125q-113 9 -157 29q-77 35 -136 125zM379.5 1364.5q7.5 33.5 50.5 44.5q16 18 40 15t18 -35q-12 -58 -74 -58q-42 0 -34.5 33.5z" />
<glyph unicode="&#xc0;" d="M-49 35l23 45q28 53 76 147.5t111.5 218t132 258t137.5 269.5t124 249q128 266 143 320q14 35 43 34t25 -38q12 -35 29.5 -81t43 -120.5t61.5 -182t86 -263.5t115.5 -367t153.5 -489q-4 -38 -31 -40q-29 -2 -40 30q7 -36 -54 154t-108 334t-94 294q-129 -4 -254 -14.5 t-256 -12.5q-63 -125 -124 -246.5t-114 -225.5q-111 -219 -168 -310q-27 -23 -51 -10.5t-10 47.5zM455 854q117 4 227.5 15.5t224.5 17.5q-55 174 -98 322.5t-76 232.5q-49 -129 -278 -588zM509.5 1882q14.5 27 43.5 27q2 0 72.5 -36t119 -60.5t89 -47t68.5 -37t30 -16.5 q18 -6 21 -20.5t-3 -26.5q-17 -34 -49 -27q-28 19 -86.5 49.5t-104.5 55t-86 45.5q-93 47 -102 47q-27 20 -12.5 47z" />
<glyph unicode="&#xc1;" d="M-49 35l23 45q28 53 76 147.5t111.5 218t132 258t137.5 269.5t124 249q128 266 143 320q14 35 43 34t25 -38q12 -35 29.5 -81t43 -120.5t61.5 -182t86 -263.5t115.5 -367t153.5 -489q-4 -38 -31 -40q-29 -2 -40 30q7 -36 -54 154t-108 334t-94 294q-129 -4 -254 -14.5 t-256 -12.5q-63 -125 -124 -246.5t-114 -225.5q-111 -219 -168 -310q-27 -23 -51 -10.5t-10 47.5zM455 854q117 4 227.5 15.5t224.5 17.5q-55 174 -98 322.5t-76 232.5q-49 -129 -278 -588zM513 1691.5q3 14.5 22 20.5q2 2 29.5 16.5t68.5 37t89 47t90 45.5q99 51 101 51 q29 0 43.5 -27t-12.5 -47q-13 0 -123 -58.5t-151 -80.5q-81 -42 -105 -58q-32 -8 -49 27q-6 12 -3 26.5z" />
<glyph unicode="&#xc2;" d="M-49 35l23 45q28 53 76 147.5t111.5 218t132 258t137.5 269.5t124 249q128 266 143 320q14 35 43 34t25 -38q12 -35 29.5 -81t43 -120.5t61.5 -182t86 -263.5t115.5 -367t153.5 -489q-4 -38 -31 -40q-29 -2 -40 30q7 -36 -54 154t-108 334t-94 294q-129 -4 -254 -14.5 t-256 -12.5q-63 -125 -124 -246.5t-114 -225.5q-111 -219 -168 -310q-27 -23 -51 -10.5t-10 47.5zM455 854q117 4 227.5 15.5t224.5 17.5q-55 174 -98 322.5t-76 232.5q-49 -129 -278 -588zM476 1602q-7 17 3 40q47 70 104.5 137.5t82 96.5t28.5 33q23 33 49.5 30.5 t40.5 -30.5q3 0 66 -73q129 -150 154 -173q10 -27 -5.5 -44t-44.5 5q-29 31 -62.5 65.5t-63 66.5t-52 56.5t-31.5 32.5q-4 2 -19 -16.5t-38.5 -46t-50.5 -60t-51 -61.5q-90 -106 -110 -59z" />
<glyph unicode="&#xc3;" d="M-49 35l23 45q28 53 76 147.5t111.5 218t132 258t137.5 269.5t124 249q128 266 143 320q14 35 43 34t25 -38q12 -35 29.5 -81t43 -120.5t61.5 -182t86 -263.5t115.5 -367t153.5 -489q-4 -38 -31 -40q-29 -2 -40 30q7 -36 -54 154t-108 334t-94 294q-129 -4 -254 -14.5 t-256 -12.5q-63 -125 -124 -246.5t-114 -225.5q-111 -219 -168 -310q-27 -23 -51 -10.5t-10 47.5zM442 1667q84 183 155 217q77 38 183 -108q29 -39 60 -76q14 -18 40.5 -5t51.5 43q63 76 63 124q2 14 13.5 23t23.5 10q33 3 32 -37.5t-29.5 -94t-66.5 -93.5t-80 -57.5 t-69 6.5t-49 56.5t-45 63t-45.5 51t-47 17.5t-53 -37.5t-47 -82.5t-31 -55.5t-26.5 -5.5t-24.5 12.5t-8.5 28.5zM455 854q117 4 227.5 15.5t224.5 17.5q-55 174 -98 322.5t-76 232.5q-49 -129 -278 -588z" />
<glyph unicode="&#xc4;" d="M-49 35l23 45q28 53 76 147.5t111.5 218t132 258t137.5 269.5t124 249q128 266 143 320q14 35 43 34t25 -38q12 -35 29.5 -81t43 -120.5t61.5 -182t86 -263.5t115.5 -367t153.5 -489q-4 -38 -31 -40q-29 -2 -40 30q7 -36 -54 154t-108 334t-94 294q-129 -4 -254 -14.5 t-256 -12.5q-63 -125 -124 -246.5t-114 -225.5q-111 -219 -168 -310q-27 -23 -51 -10.5t-10 47.5zM455 854q117 4 227.5 15.5t224.5 17.5q-55 174 -98 322.5t-76 232.5q-49 -129 -278 -588zM561 1763v9q6 37 37 47l29 2q31 0 34 -28t-12 -44q-7 -13 -57 -29h-2 q-14 4 -19.5 17.5t-9.5 25.5zM629 1810l2 -2v2h-2zM807 1763v9q6 37 37 47l28 2q31 0 34 -28t-7 -41q-12 -16 -61 -32h-2q-14 4 -19.5 17.5t-9.5 25.5zM874 1810l3 -2v2h-3z" />
<glyph unicode="&#xc5;" d="M-49 35l23 45q28 53 76 147.5t111.5 218t132 258t137.5 269.5t124 249q128 266 143 320q14 35 43 34t25 -38q12 -35 29.5 -81t43 -120.5t61.5 -182t86 -263.5t115.5 -367t153.5 -489q-4 -38 -31 -40q-29 -2 -40 30q7 -36 -54 154t-108 334t-94 294q-129 -4 -254 -14.5 t-256 -12.5q-63 -125 -124 -246.5t-114 -225.5q-111 -219 -168 -310q-27 -23 -51 -10.5t-10 47.5zM455 854q117 4 227.5 15.5t224.5 17.5q-55 174 -98 322.5t-76 232.5q-49 -129 -278 -588zM576.5 1758.5q15.5 58.5 59.5 104.5t102.5 65.5t101.5 -10.5t67.5 -56.5 t33.5 -75.5t-30 -91t-97 -61.5t-118.5 -15.5t-97.5 43t-21.5 97.5zM642 1750q-7 -28 10 -44t53 -19.5t72 5t63.5 27.5t27.5 47t-19.5 61t-72.5 43q-52 0 -106 -66q-21 -26 -28 -54z" />
<glyph unicode="&#xc6;" horiz-adv-x="1566" d="M23 33q2 4 26.5 52t373.5 706.5t433 803.5q12 6 22.5 1t630.5 -7q41 0 34 -35t-42 -41h-606v-657h420q20 -2 28.5 -15.5t5.5 -26.5t-17.5 -23.5t-39.5 -4.5l-397 -6v-712q98 0 122.5 5t116.5 11q229 15 371 6q19 0 19 -22q0 -45 -25 -37q-144 -15 -321 -20t-208.5 -9 t-101.5 -10q-14 4 -20 12t-11 14t-7.5 20.5t-3.5 65t-2 148.5t-2 238.5t-3 291.5h-321q-385 -741 -412 -784q-27 -23 -52.5 -10.5t-10.5 45.5zM535 856h284v543zM895 780v2v-2z" />
<glyph unicode="&#xc7;" horiz-adv-x="1159" d="M18 772q72 375 132.5 484.5t145.5 193.5t190 124q232 88 481 -73v-2v4l2 -6l-2 2q4 -30 -13.5 -42.5t-30 -12.5t-22.5 16q-127 78 -248 71t-224 -69.5t-181 -169t-114 -225.5t-42 -254t22.5 -264t97.5 -241q110 -178 328 -230q205 -48 373 28q88 39 138 134q16 37 45 32 q31 -5 20 -45q-32 -131 -198 -195q-100 -40 -252 -46q5 -120 -4 -211q220 0 313 -70q41 -31 47 -80q-13 -89 -408 -95q-71 -1 -110 -3q-35 4 -45 37q-11 33 30 37q25 0 152 9t176 15q118 14 127 27q-60 47 -243 47q-44 0 -72 -2q-45 6 -49 49q23 93 12 238q-137 4 -247 71.5 t-184.5 181t-110.5 256t-32 279.5z" />
<glyph unicode="&#xc8;" horiz-adv-x="927" d="M29 1552q4 30 37 44q30 14 34 -23q684 15 730 15.5t54.5 -9.5t5.5 -25q-7 -34 -42 -41q-178 -2 -373.5 -7t-374.5 -9l2 -620q8 4 17 4l463 10q40 0 33 -35q-3 -14 -14 -26.5t-28 -14.5l-471 -10l2 -737q132 0 300 11q306 20 448 11q18 0 18 -22q0 -45 -24 -37 q-144 -15 -321 -20q-335 -9 -447 -19q-14 4 -20.5 12t-11.5 14t-7 20.5t-3 65t-2 148.5t-2 267q-3 507 -3 1033zM210.5 1960q14.5 27 43.5 27q2 0 72.5 -36t119 -60.5t89 -47t68.5 -37t30 -16.5q18 -6 21 -20.5t-3 -26.5q-17 -35 -49 -27q-28 19 -86.5 49.5t-104.5 55 t-86 45.5q-93 47 -102 47q-27 20 -12.5 47z" />
<glyph unicode="&#xc9;" horiz-adv-x="927" d="M29 1552q4 30 37 44q30 14 34 -23q684 15 730 15.5t54.5 -9.5t5.5 -25q-7 -34 -42 -41q-178 -2 -373.5 -7t-374.5 -9l2 -620q8 4 17 4l463 10q40 0 33 -35q-3 -14 -14 -26.5t-28 -14.5l-471 -10l2 -737q132 0 300 11q306 20 448 11q18 0 18 -22q0 -45 -24 -37 q-144 -15 -321 -20q-335 -9 -447 -19q-14 4 -20.5 12t-11.5 14t-7 20.5t-3 65t-2 148.5t-2 267q-3 507 -3 1033zM214 1769.5q3 14.5 22 20.5q2 2 29.5 16.5t68.5 37t89 47t90 45.5q99 51 101 51q29 0 43.5 -27t-12.5 -47q-13 0 -123 -58.5t-151 -80.5q-81 -42 -105 -58 q-32 -8 -49 27q-6 12 -3 26.5z" />
<glyph unicode="&#xca;" horiz-adv-x="927" d="M29 1552q4 30 37 44q30 14 34 -23q684 15 730 15.5t54.5 -9.5t5.5 -25q-7 -34 -42 -41q-178 -2 -373.5 -7t-374.5 -9l2 -620q8 4 17 4l463 10q40 0 33 -35q-3 -14 -14 -26.5t-28 -14.5l-471 -10l2 -737q132 0 300 11q306 20 448 11q18 0 18 -22q0 -45 -24 -37 q-144 -15 -321 -20q-335 -9 -447 -19q-14 4 -20.5 12t-11.5 14t-7 20.5t-3 65t-2 148.5t-2 267q-3 507 -3 1033zM192 1692q-7 18 3 41q54 80 132.5 171t82.5 95q23 33 49 31t41 -31q2 0 29.5 -32t63.5 -73t71.5 -81.5t54.5 -59.5q10 -27 -5.5 -44t-43.5 5q-29 31 -63 66 t-63.5 66.5t-52 56t-30.5 32.5q-9 0 -72 -77.5t-88 -106.5q-92 -106 -109 -59z" />
<glyph unicode="&#xcb;" horiz-adv-x="927" d="M29 1552q4 30 37 44q30 14 34 -23q684 15 730 15.5t54.5 -9.5t5.5 -25q-7 -34 -42 -41q-178 -2 -373.5 -7t-374.5 -9l2 -620q8 4 17 4l463 10q40 0 33 -35q-3 -14 -14 -26.5t-28 -14.5l-471 -10l2 -737q132 0 300 11q306 20 448 11q18 0 18 -22q0 -45 -24 -37 q-144 -15 -321 -20q-335 -9 -447 -19q-14 4 -20.5 12t-11.5 14t-7 20.5t-3 65t-2 148.5t-2 267q-3 507 -3 1033zM276 1819v8q6 37 37 47l29 2q31 0 34 -27.5t-7 -40.5q-11 -15 -62 -32h-2q-14 4 -19 17zM344 1866l2 -2v2h-2zM522 1819v8q6 37 37 47l29 2q31 0 34 -27.5 t-8 -40.5q-11 -15 -61 -32h-2q-17 5 -29 43zM590 1866l2 -2v2h-2z" />
<glyph unicode="&#xcc;" horiz-adv-x="368" d="M-2.5 1882q14.5 27 43.5 27q4 0 49 -22.5t100 -49.5q139 -69 146 -76q18 -6 21 -20.5t-3 -26.5q-18 -35 -49 -26q-83 50 -185 98.5t-110 48.5q-27 20 -12.5 47zM125 1511q2 16 14.5 28.5t24.5 17t22.5 -3t10.5 -29.5l4 -1479q0 -41 -17.5 -44t-44.5 13q-14 28 -14 1497z " />
<glyph unicode="&#xcd;" horiz-adv-x="364" d="M1 1740.5q3 14.5 22 20.5q14 14 130.5 69.5t139 67t24.5 11.5q29 0 43.5 -27t-12.5 -47q-15 0 -105.5 -47t-136 -70.5t-53.5 -29.5q-32 -8 -49 26q-6 12 -3 26.5zM125 1511q2 16 14.5 28.5t24.5 17t22.5 -3t10.5 -29.5l4 -1479q0 -41 -17.5 -44t-44.5 13q-14 28 -14 1497 z" />
<glyph unicode="&#xce;" horiz-adv-x="391" d="M3 1694q-7 18 3 41q65 95 133 172q23 33 49.5 30.5t40.5 -30.5q3 0 44 -51q68 -87 110 -132q10 -27 -5.5 -44t-43.5 6q-59 61 -93 101t-51 56q-6 2 -24.5 -21.5t-41.5 -53.5q-100 -125 -121 -74zM133 1511q2 16 14.5 28.5t24.5 17t22.5 -3t10.5 -29.5l4 -1479 q0 -41 -17.5 -44t-44.5 13q-14 28 -14 1497z" />
<glyph unicode="&#xcf;" horiz-adv-x="376" d="M4 1737v8q6 37 37 47l29 2q31 0 33.5 -27.5t-7.5 -40.5q-11 -15 -61 -32h-2q-17 5 -29 43zM72 1784l2 -2v2h-2zM141 1511q2 16 14.5 28.5t25 17t22.5 -3t10 -29.5l4 -1479q0 -41 -17.5 -44t-43.5 13q-15 30 -15 1497zM250 1737v8q6 37 37 47l28 2q31 0 34 -27.5t-7 -40.5 q-11 -15 -61 -32h-2q-17 5 -29 43zM317 1784l2 -2v2h-2z" />
<glyph unicode="&#xd0;" horiz-adv-x="1099" d="M-114 794q12 33 46 33q50 -4 97 -4q0 104 8 746v4q-8 10 -1 30.5t21 30.5q184 46 419 -47q232 -92 392 -272q175 -197 186 -423t-52.5 -386t-194.5 -264q-240 -190 -766 -234q-12 60 -12 592v145l-117 7q-38 8 -26 42zM109 80q43 10 130 24.5t191.5 44t211 81t190 134 t129 205.5t12.5 412q-78 254 -257 384q-329 239 -607 210v-754q172 0 294 15q20 0 28.5 -10.5t5.5 -25.5q-8 -36 -42 -40q-135 -15 -286 -15v-665z" />
<glyph unicode="&#xd1;" horiz-adv-x="1110" d="M11 60.5q-1 58.5 5.5 233.5t17.5 483t32 782q8 30 38 41q13 4 23 -2.5t10 -18.5t2 -12l774 -1442q-12 730 -14 1434q4 31 39 45q12 4 22.5 -3.5t10.5 -29.5l10 -1512l-6 -8q10 -29 -4.5 -37t-42.5 -4q-60 30 -803 1444l-45 -1399q-7 -71 -64 -28q-4 -25 -5 33.5z M221 1741q120 261 221 220q49 -20 117 -112q29 -39 59 -75q14 -18 41 -5t51 43q64 76 64 123q2 14 13.5 23.5t23.5 10.5q33 3 32 -38t-30 -94t-66.5 -93t-79.5 -57.5t-69 5t-49.5 56.5t-45 64.5t-45 51t-47 17.5t-53 -37.5t-47 -82.5t-31 -55.5t-26.5 -5.5q-37 5 -33 41z " />
<glyph unicode="&#xd2;" horiz-adv-x="1513" d="M45 1124q18 68 72 139q92 124 155 171q215 154 391.5 191.5t311.5 -7.5t229 -157.5t146.5 -260t61.5 -314.5t-24.5 -322.5t-112.5 -282.5t-202 -195q-162 -88 -316.5 -96t-286.5 46t-234.5 163.5t-163.5 254.5q-131 313 -27 670zM81 904.5q-13 -154.5 26.5 -310.5 t129 -276.5t223.5 -190t306 -53.5q176 6 298 95t190.5 224t86 299t-13.5 319.5t-108.5 285.5t-198.5 199t-284 58.5t-365 -137.5q-135 -84 -206 -221t-84 -291.5zM530.5 1984q14.5 27 42.5 27q3 0 73.5 -36t118.5 -60.5t89 -47t68.5 -36.5t29.5 -16q18 -6 21.5 -20.5 t-2.5 -26.5q-17 -35 -49 -27q-24 16 -85 48t-107 56.5t-86 44.5q-91 47 -101 47q-27 20 -12.5 47z" />
<glyph unicode="&#xd3;" horiz-adv-x="1513" d="M45 1124q18 68 72 139q92 124 155 171q215 154 391.5 191.5t311.5 -7.5t229 -157.5t146.5 -260t61.5 -314.5t-24.5 -322.5t-112.5 -282.5t-202 -195q-162 -88 -316.5 -96t-286.5 46t-234.5 163.5t-163.5 254.5q-131 313 -27 670zM81 904.5q-13 -154.5 26.5 -310.5 t129 -276.5t223.5 -190t306 -53.5q176 6 298 95t190.5 224t86 299t-13.5 319.5t-108.5 285.5t-198.5 199t-284 58.5t-365 -137.5q-135 -84 -206 -221t-84 -291.5zM536 1768q-17 33 19 47q2 2 29.5 16t68.5 36.5t89.5 47t89.5 45.5q98 51 102 51q29 0 43.5 -27t-12.5 -47 q-16 0 -125 -58t-150 -79q-76 -40 -104 -59q-32 -8 -50 27z" />
<glyph unicode="&#xd4;" horiz-adv-x="1513" d="M45 1124q18 68 72 139q92 124 155 171q215 154 391.5 191.5t311.5 -7.5t229 -157.5t146.5 -260t61.5 -314.5t-24.5 -322.5t-112.5 -282.5t-202 -195q-162 -88 -316.5 -96t-286.5 46t-234.5 163.5t-163.5 254.5q-131 313 -27 670zM81 904.5q-13 -154.5 26.5 -310.5 t129 -276.5t223.5 -190t306 -53.5q176 6 298 95t190.5 224t86 299t-13.5 319.5t-108.5 285.5t-198.5 199t-284 58.5t-365 -137.5q-135 -84 -206 -221t-84 -291.5zM460 1719q-7 17 3 40q52 77 131.5 169.5t83.5 96.5q23 33 49.5 31t40.5 -31q2 0 29.5 -31.5t63.5 -72.5 l72 -82t54 -59q10 -27 -5 -44.5t-44 5.5q-29 31 -62.5 65.5t-63.5 66.5t-52.5 56.5t-30.5 32.5q-7 3 -71 -76.5t-88 -107.5q-91 -106 -110 -59z" />
<glyph unicode="&#xd5;" horiz-adv-x="1513" d="M45 1124q18 68 72 139q92 124 155 171q215 154 391.5 191.5t311.5 -7.5t229 -157.5t146.5 -260t61.5 -314.5t-24.5 -322.5t-112.5 -282.5t-202 -195q-162 -88 -316.5 -96t-286.5 46t-234.5 163.5t-163.5 254.5q-131 313 -27 670zM81 904.5q-13 -154.5 26.5 -310.5 t129 -276.5t223.5 -190t306 -53.5q176 6 298 95t190.5 224t86 299t-13.5 319.5t-108.5 285.5t-198.5 199t-284 58.5t-365 -137.5q-135 -84 -206 -221t-84 -291.5zM442 1778q120 261 220 220q52 -21 118 -112q29 -39 60 -76q14 -18 40.5 -4.5t51.5 42.5q63 77 63 124 q2 14 13.5 23.5t23.5 10.5q33 3 32 -38t-29.5 -94t-66.5 -93t-80 -57.5t-69 6.5t-49 56.5t-45 63t-45.5 51t-47 17.5t-53 -38t-47 -83t-31 -55t-26.5 -5q-37 5 -33 41z" />
<glyph unicode="&#xd6;" horiz-adv-x="1513" d="M45 1124q18 68 72 139q92 124 155 171q215 154 391.5 191.5t311.5 -7.5t229 -157.5t146.5 -260t61.5 -314.5t-24.5 -322.5t-112.5 -282.5t-202 -195q-162 -88 -316.5 -96t-286.5 46t-234.5 163.5t-163.5 254.5q-131 313 -27 670zM81 904.5q-13 -154.5 26.5 -310.5 t129 -276.5t223.5 -190t306 -53.5q176 6 298 95t190.5 224t86 299t-13.5 319.5t-108.5 285.5t-198.5 199t-284 58.5t-365 -137.5q-135 -84 -206 -221t-84 -291.5zM545 1825v8q6 37 37 47l28 2q31 0 34 -27.5t-7 -40.5q-12 -17 -62 -32h-2q-14 4 -19 17t-9 26zM612 1872l2 -2 v2h-2zM791 1825v8q6 37 36 47l29 2q31 0 34 -27.5t-7 -40.5q-12 -17 -62 -32h-2q-14 4 -19 17t-9 26zM858 1872l2 -2v2h-2z" />
<glyph unicode="&#xd7;" horiz-adv-x="559" d="M20 944q-20 28 6 56q23 26 52 1l201 -202l38 47q23 29 45.5 57.5t45.5 57.5l16 16q9 33 39 40q12 3 21.5 -5t9.5 -29q-10 -57 -168 -231q41 -43 80 -87l83 -90l-2 -2q9 -26 -5 -41q-26 -31 -48 -16q-2 0 -2 1t-2 1v2l-12 12q-40 50 -146 156l-159 -207v-2 q-32 -32 -53 -13q-20 19 -1 50l2 2v2q26 32 166 213z" />
<glyph unicode="&#xd8;" horiz-adv-x="1513" d="M45 1124q18 68 72 139q92 124 155 171q215 154 391.5 191.5t311.5 -7.5t229 -157.5t146.5 -260t61.5 -314.5t-24.5 -322.5t-112.5 -282.5t-202 -195q-162 -88 -316.5 -96t-286.5 46t-234.5 163.5t-163.5 254.5q-131 313 -27 670zM81 904.5q-13 -154.5 26.5 -310.5 t129 -276.5t223.5 -190t306 -53.5q176 6 298 95t190.5 224t86 299t-13.5 319.5t-108.5 285.5t-198.5 199t-284 58.5t-365 -137.5q-135 -84 -206 -221t-84 -291.5zM209 -115l23 45q793 1542 839.5 1643.5t56.5 136.5q17 38 46 33q12 -2 19 -13.5t21 -31.5q-41 -74 -479 -934 t-465 -916q-35 -23 -55 -10.5t-6 47.5z" />
<glyph unicode="&#xd9;" horiz-adv-x="1263" d="M14 1294q3 166 13 342q4 16 16 28.5t24.5 15.5t21.5 -5t9 -30q-8 -152 -8 -325t12 -345q36 -546 132 -715q55 -98 150 -148q98 -52 257 -20q164 34 285 144q132 122 166 388q33 269 2 613q-15 156 -27 293q5 28 33 42t39 -22q14 -164 30.5 -318.5t18.5 -303.5 q4 -331 -105 -594q-67 -157 -258 -255q-182 -93 -354 -85q-111 4 -216 110q-99 100 -128 205q-125 456 -113 985zM345.5 1960q14.5 27 43.5 27q4 0 73.5 -36t118 -60.5t89.5 -47t68.5 -37t29.5 -16.5q18 -6 21.5 -20.5t-3.5 -26.5q-18 -34 -49 -27q-28 19 -86.5 49.5 t-104.5 55t-86 45.5q-93 47 -102 47q-27 20 -12.5 47z" />
<glyph unicode="&#xda;" horiz-adv-x="1263" d="M16 1018q23 -388 111 -709q29 -105 128 -205q105 -106 216 -110q172 -8 354 85q193 99 256 252t86 300t21 296.5t-18.5 304t-30.5 318.5q-12 36 -39 22q-28 -14 -33 -42q12 -137 26.5 -293t15.5 -311q2 -366 -91 -568q-64 -132 -224 -212q-152 -77 -305 -64 q-105 7 -191 93q-75 75 -108.5 191.5t-55 276.5t-33 332t-11.5 345t8 325q0 23 -9 30.5t-21.5 4.5t-24.5 -15.5t-16 -28.5q-23 -405 -11 -618zM427 1769.5q3 14.5 22 20.5q2 2 29.5 16.5t68.5 37t89 47t90 45.5q99 51 101 51q29 0 43.5 -27t-12.5 -47q-13 0 -123 -58.5 t-151 -80.5q-81 -42 -105 -58q-32 -8 -49 27q-6 12 -3 26.5z" />
<glyph unicode="&#xdb;" horiz-adv-x="1263" d="M14 1294q3 166 13 342q4 16 16 28.5t24.5 15.5t21.5 -5t9 -30q-8 -152 -8 -325t12 -345q36 -546 132 -715q55 -98 150 -148q98 -52 257 -20q164 34 285 144q132 122 166 388q33 269 2 613q-15 156 -27 293q5 28 33 42t39 -22q14 -164 30.5 -318.5t18.5 -303.5 q4 -331 -105 -594q-67 -157 -258 -255q-182 -93 -354 -85q-111 4 -216 110q-99 100 -128 205q-125 456 -113 985zM306 1719q-7 17 3 40q52 77 131.5 169.5t83.5 96.5q23 33 49.5 31t40.5 -31q3 0 66 -73q129 -149 154 -172q10 -27 -5.5 -44.5t-44.5 5.5q-29 31 -62.5 65.5 t-63 66.5t-52 56.5t-31.5 32.5q-4 2 -19 -16.5t-38.5 -46t-50.5 -60.5t-51 -61q-91 -106 -110 -59z" />
<glyph unicode="&#xdc;" horiz-adv-x="1263" d="M14 1294q3 166 13 342q4 16 16 28.5t24.5 15.5t21.5 -5t9 -30q-8 -152 -8 -325t12 -345q36 -546 132 -715q55 -98 150 -148q98 -52 257 -20q164 34 285 144q132 122 166 388q33 269 2 613q-15 156 -27 293q5 28 33 42t39 -22q14 -164 30.5 -318.5t18.5 -303.5 q4 -331 -105 -594q-67 -157 -258 -255q-182 -93 -354 -85q-111 4 -216 110q-99 100 -128 205q-125 456 -113 985zM434 1825v8q6 37 37 47l29 2q31 0 34 -27.5t-8 -40.5q-11 -15 -61 -32h-2q-17 5 -29 43zM502 1872l2 -2v2h-2zM680 1825v8q6 37 37 47l28 2q31 0 34 -27.5 t-7 -40.5q-11 -15 -61 -32h-2q-17 5 -29 43zM748 1872l2 -2v2h-2z" />
<glyph unicode="&#xdd;" horiz-adv-x="1249" d="M-2 1573q61 -113 140 -245t155 -261q197 -334 237 -422q11 -154 11 -271v-192q0 -76 2 -157q11 -37 43 -30q14 3 24.5 15.5t10.5 28.5l-11 610q12 20 49 76.5t88.5 136.5t114 175.5t128.5 195.5q104 160 245 383q17 39 -13 53q-33 16 -57 -16q-74 -115 -159.5 -251 t-167.5 -265q-219 -344 -263 -410q-133 219 -249.5 435t-249.5 435q-11 34 -44 19q-29 -14 -34 -43zM427 1769.5q3 14.5 22 20.5q2 2 29.5 16.5t68.5 37t89 47t90 45.5q99 51 101 51q29 0 43.5 -27t-12.5 -47q-13 0 -123 -58.5t-151 -80.5q-81 -42 -105 -58q-32 -8 -49 27 q-6 12 -3 26.5z" />
<glyph unicode="&#xde;" horiz-adv-x="935" d="M82 1653q2 16 14.5 28.5t24.5 16.5t22.5 -3t10.5 -30v-455q359 102 559 -18q88 -53 127 -137t31.5 -172t-57.5 -170t-141 -133q-207 -118 -517 -2l2 -711q0 -41 -17.5 -44t-44.5 13q-7 15 -8.5 250.5t-2.5 399.5q-3 494 -3 1167zM154 1137l2 -482q145 -59 260.5 -58 t195.5 40t126 106.5t52.5 140t-28.5 141.5t-113 112q-177 98 -495 0z" />
<glyph unicode="&#xdf;" horiz-adv-x="980" d="M15 876.5q-3 118.5 6.5 237.5t44.5 220q79 222 286 263q146 24 276 -29q157 -64 179 -212q25 -176 -31.5 -324.5t-161.5 -279.5q69 7 164 -56q81 -55 112 -102.5t35.5 -72.5t8.5 -60q33 -157 -104 -288q-114 -110 -302 -163q-181 -52 -276 -18q-4 -23 -7 -9.5t-1 36 t12 40t35 4.5q80 -14 179 2.5t187 63.5t147.5 124t59.5 183q0 51 -29.5 98.5t-74.5 81.5q-101 75 -199 46q-29 -16 -55 -27q-33 -6 -37 17.5t12 43.5q245 275 260 566q4 88 -47 153.5t-130 96t-171 21.5t-168 -69q-110 -86 -125 -304q-4 -58 -11 -155t5 -235.5t20.5 -269 t7.5 -247t-1 -235.5v-10q-4 -12 -12 -28q-26 -26 -46 -15q-10 10 -14 25q0 121 2 238.5t-5 216t-17.5 206t-13.5 226z" />
<glyph unicode="&#xe0;" horiz-adv-x="659" d="M-6 289q-8 155 68 349q52 136 133 206q43 37 97 45t86 -2t53.5 -29.5t38.5 -43t46 -40.5q12 23 34.5 30t33.5 -22q11 -218 15.5 -410t8.5 -270q6 -10 6 -24l-2 -49q-8 -27 -32.5 -38t-36.5 17h-2v8l-13 291q-18 -57 -45.5 -99.5t-58.5 -76t-69 -65.5q-92 -76 -151.5 -76 t-101 26.5t-64.5 69.5q-39 70 -44 203zM66 400q-14 -123 18 -226q56 -125 135.5 -103t135 76t89.5 125q62 134 62 306l-4 116q-25 10 -44.5 30.5t-39.5 39.5q-109 110 -220 -16q-36 -43 -65.5 -109.5t-45 -123t-21.5 -115.5zM114.5 1339q14.5 27 43.5 27q2 0 72.5 -36 t118.5 -60.5t89 -47t69 -37t30 -16.5q35 -12 18 -47q-17 -34 -49 -26q-24 16 -85 48t-107 56.5t-86 45.5q-91 46 -101 46q-27 20 -12.5 47z" />
<glyph unicode="&#xe1;" horiz-adv-x="659" d="M-6 289q-8 155 68 349q52 136 133 206q43 37 97 45t86 -2t53.5 -29.5t38.5 -43t46 -40.5q12 23 34.5 30t33.5 -22q11 -218 15.5 -410t8.5 -270q6 -10 6 -24l-2 -49q-8 -27 -32.5 -38t-36.5 17h-2v8l-13 291q-18 -57 -45.5 -99.5t-58.5 -76t-69 -65.5q-92 -76 -151.5 -76 t-101 26.5t-64.5 69.5q-39 70 -44 203zM66 400q-14 -123 18 -226q56 -125 135.5 -103t135 76t89.5 125q62 134 62 306l-4 116q-25 10 -44.5 30.5t-39.5 39.5q-109 110 -220 -16q-36 -43 -65.5 -109.5t-45 -123t-21.5 -115.5zM121 1122q-17 35 18 47q2 2 30 16.5t69 37t89 47 t90 46.5q99 50 101 50q29 0 43.5 -27t-12.5 -47q-14 0 -124 -58t-151 -80q-76 -39 -104 -58q-32 -8 -49 26z" />
<glyph unicode="&#xe2;" horiz-adv-x="659" d="M-6 289q-8 155 68 349q52 136 133 206q43 37 97 45t86 -2t53.5 -29.5t38.5 -43t46 -40.5q12 23 34.5 30t33.5 -22q11 -218 15.5 -410t8.5 -270q6 -10 6 -24l-2 -49q-8 -27 -32.5 -38t-36.5 17h-2v8l-13 291q-18 -57 -45.5 -99.5t-58.5 -76t-69 -65.5q-92 -76 -151.5 -76 t-101 26.5t-64.5 69.5q-39 70 -44 203zM66 400q-14 -123 18 -226q56 -125 135.5 -103t135 76t89.5 125q62 134 62 306l-4 116q-25 10 -44.5 30.5t-39.5 39.5q-109 110 -220 -16q-36 -43 -65.5 -109.5t-45 -123t-21.5 -115.5zM68 1060q-6 17 4 40q63 93 137 177.5t78 88.5 q23 33 49 31t41 -31q2 0 29.5 -31.5t63.5 -72.5l72 -82t54 -60q10 -27 -5.5 -44t-43.5 5q-29 31 -62.5 66t-63.5 67q-52 54 -83 89q-4 2 -19.5 -16.5t-39 -46.5t-50 -60.5t-51.5 -61.5q-91 -106 -110 -58z" />
<glyph unicode="&#xe3;" horiz-adv-x="659" d="M-6 289q-8 155 68 349q52 136 133 206q43 37 97 45t86 -2t53.5 -29.5t38.5 -43t46 -40.5q12 23 34.5 30t33.5 -22q11 -218 15.5 -410t8.5 -270q6 -10 6 -24l-2 -49q-8 -27 -32.5 -38t-36.5 17h-2v8l-13 291q-18 -57 -45.5 -99.5t-58.5 -76t-69 -65.5q-92 -76 -151.5 -76 t-101 26.5t-64.5 69.5q-39 70 -44 203zM12 1110q120 261 220 220q52 -21 118 -112q29 -38 60 -75q14 -18 40.5 -5t51.5 42q63 77 63 125q2 14 13.5 23t23.5 10q33 3 32 -37.5t-30 -94t-66.5 -93.5t-79.5 -57.5t-69 6.5t-49.5 56.5t-45 63t-45 51t-47 17.5t-53 -37.5 t-47 -82.5t-31 -55.5t-26.5 -5.5t-24.5 12.5t-8.5 28.5zM66 400q-14 -123 18 -226q56 -125 135.5 -103t135 76t89.5 125q62 134 62 306l-4 116q-25 10 -44.5 30.5t-39.5 39.5q-109 110 -220 -16q-36 -43 -65.5 -109.5t-45 -123t-21.5 -115.5z" />
<glyph unicode="&#xe4;" horiz-adv-x="659" d="M-6 289q-8 155 68 349q52 136 133 206q43 37 97 45t86 -2t53.5 -29.5t38.5 -43t46 -40.5q12 23 34.5 30t33.5 -22q11 -218 15.5 -410t8.5 -270q6 -10 6 -24l-2 -49q-8 -27 -32.5 -38t-36.5 17h-2v8l-13 291q-18 -57 -45.5 -99.5t-58.5 -76t-69 -65.5q-92 -76 -151.5 -76 t-101 26.5t-64.5 69.5q-39 70 -44 203zM66 400q-14 -123 18 -226q56 -125 135.5 -103t135 76t89.5 125q62 134 62 306l-4 116q-25 10 -44.5 30.5t-39.5 39.5q-109 110 -220 -16q-36 -43 -65.5 -109.5t-45 -123t-21.5 -115.5zM143 1204v8q6 37 37 48l29 2q31 0 34 -28 t-12 -44q-8 -12 -57 -29h-2q-14 4 -19.5 17.5t-9.5 25.5zM211 1251l2 -2v2h-2zM389 1204v8q6 37 37 48l29 2q31 0 34 -28t-12 -44q-8 -12 -57 -29h-2q-14 4 -19.5 17.5t-9.5 25.5zM457 1251l2 -2v2h-2z" />
<glyph unicode="&#xe5;" horiz-adv-x="659" d="M-6 289q-8 155 68 349q52 136 133 206q43 37 97 45t86 -2t53.5 -29.5t38.5 -43t46 -40.5q12 23 34.5 30t33.5 -22q11 -218 15.5 -410t8.5 -270q6 -10 6 -24l-2 -49q-8 -27 -32.5 -38t-36.5 17h-2v8l-13 291q-18 -57 -45.5 -99.5t-58.5 -76t-69 -65.5q-92 -76 -151.5 -76 t-101 26.5t-64.5 69.5q-39 70 -44 203zM66 400q-14 -123 18 -226q56 -125 135.5 -103t135 76t89.5 125q62 134 62 306l-4 116q-25 10 -44.5 30.5t-39.5 39.5q-109 110 -220 -16q-36 -43 -65.5 -109.5t-45 -123t-21.5 -115.5zM124 1205.5q15 58.5 59 104.5t102.5 65.5 t101.5 -10.5t67.5 -56.5t33.5 -75.5t-29.5 -91t-97 -61.5t-119 -15.5t-97 43t-21.5 97.5zM201 1153q16 -16 52 -19.5t71.5 5t63.5 27.5t28 47t-19.5 61t-72.5 43q-52 0 -106 -65q-54 -68 -17 -99z" />
<glyph unicode="&#xe6;" horiz-adv-x="1214" d="M-6 289q-8 155 68 349q52 136 133 206q43 37 97 45t86 -2t53.5 -29.5t38.5 -43t46 -40.5q12 23 34.5 30t33.5 -22v-45q12 23 28 41q99 131 266 76q105 -35 156 -116q54 -88 -8 -169q-77 -100 -320 -119q-61 -4 -110 -8q2 -47 2 -94q6 -41 20 -102.5t56.5 -120.5 t107 -69.5t129 10t118.5 62.5t77 89q20 28 38 22q29 -10 21 -46q-39 -78 -103.5 -132.5t-140 -76t-154.5 -4.5q-82 19 -153 90q0 -8 -1 -18.5t-1 -22.5q-8 -27 -32.5 -38t-36.5 17h-2v8l-13 291q-18 -57 -45.5 -99.5t-58.5 -76t-69 -65.5q-92 -76 -151.5 -76t-101 26.5 t-64.5 69.5q-39 70 -44 203zM66 400q-14 -123 18 -226q56 -125 135.5 -103t135 76t89.5 125q62 134 62 306l-4 116q-25 10 -44.5 30.5t-39.5 39.5q-109 110 -220 -16q-36 -43 -65.5 -109.5t-45 -123t-21.5 -115.5zM598 518q59 6 135 9t120 15.5t67.5 33t50.5 36.5 q2 16 7 31.5t1 32.5q-16 55 -64.5 83.5t-103.5 30t-105.5 -25.5t-74 -91.5t-33.5 -154.5z" />
<glyph unicode="&#xe7;" horiz-adv-x="782" d="M4 420q0 110 26.5 202.5t70.5 161t100.5 107.5t118.5 37q137 -4 239 -201q-18 -43 -31 -49q-28 -14 -41 24q-80 106 -148.5 130t-120.5 -8.5t-86 -109.5t-44 -169t3 -186.5t56 -164t116 -101.5t181 3q63 20 117.5 61.5t108.5 78.5q34 12 42 -16t-18 -48 q-182 -130 -232.5 -153t-72.5 -27q5 -106 -4 -185q222 0 313 -69q41 -31 47 -80q-7 -50 -119 -70q-127 -23 -243.5 -24.5t-155.5 -3.5q-35 4 -45 36q-11 33 31 37q4 0 37 2.5t81 5.5t104.5 7t105.5 10q119 15 127 27q-60 47 -243 47q-44 0 -73 -2q-45 6 -49 49q19 81 14 207 l-32 4q-122 21 -210 186q-71 134 -71 244z" />
<glyph unicode="&#xe8;" horiz-adv-x="661" d="M-2 453q-6 12 0 26q0 276 158 367q79 44 187 8q106 -35 155 -116q55 -89 -6 -169q-77 -100 -321 -119q-60 -4 -110 -8q-5 -200 82 -321q39 -55 103.5 -65.5t129 10t119 62.5t76.5 89q20 28 38 22q30 -10 22 -46q-39 -78 -103.5 -132.5t-140.5 -76.5q-169 -47 -299 77 q-52 52 -74 185q-10 55 -12 110.5t-4 96.5zM63 518q59 6 135 9t120.5 15.5t68 33t49.5 36.5q2 16 7.5 31.5t0.5 32.5q-16 55 -64 83.5t-103.5 30t-106 -25.5t-74 -91.5t-33.5 -154.5zM83.5 1339q14.5 27 43.5 27q2 0 72.5 -36t119 -60.5t89.5 -47t68.5 -37t29.5 -16.5 q35 -12 18 -47q-16 -34 -49 -26q-28 19 -86.5 49.5t-104.5 55t-86 45.5q-91 46 -102 46q-27 20 -12.5 47z" />
<glyph unicode="&#xe9;" horiz-adv-x="661" d="M-2 453q-6 12 0 26q0 276 158 367q79 44 187 8q106 -35 155 -116q55 -89 -6 -169q-77 -100 -321 -119q-60 -4 -110 -8q-5 -200 82 -321q39 -55 103.5 -65.5t129 10t119 62.5t76.5 89q20 28 38 22q30 -10 22 -46q-39 -78 -103.5 -132.5t-140.5 -76.5q-169 -47 -299 77 q-52 52 -74 185q-10 55 -12 110.5t-4 96.5zM63 518q59 6 135 9t120.5 15.5t68 33t49.5 36.5q2 16 7.5 31.5t0.5 32.5q-16 55 -64 83.5t-103.5 30t-106 -25.5t-74 -91.5t-33.5 -154.5zM64.5 1149q3.5 14 21.5 20q2 2 29.5 16.5t68.5 37t89.5 47t90.5 46.5q99 50 101 50 q29 0 43.5 -27t-12.5 -47q-16 0 -125 -58t-150 -80q-76 -39 -104 -58q-32 -8 -49 26q-7 13 -3.5 27z" />
<glyph unicode="&#xea;" horiz-adv-x="661" d="M-2 453q-6 12 0 26q0 276 158 367q79 44 187 8q106 -35 155 -116q55 -89 -6 -169q-77 -100 -321 -119q-60 -4 -110 -8q-5 -200 82 -321q39 -55 103.5 -65.5t129 10t119 62.5t76.5 89q20 28 38 22q30 -10 22 -46q-39 -78 -103.5 -132.5t-140.5 -76.5q-169 -47 -299 77 q-52 52 -74 185q-10 55 -12 110.5t-4 96.5zM22 1060q-7 17 3 40q63 93 137 177.5t78 88.5q23 33 49 31t41 -31q2 0 29.5 -31.5t63.5 -72.5t71.5 -82t54.5 -60q10 -27 -5.5 -44t-43.5 5q-29 31 -63 66t-63 67q-58 61 -83 89q-4 2 -19.5 -16.5t-39 -46.5t-50 -60.5 t-51.5 -61.5q-92 -104 -109 -58zM63 518q59 6 135 9t120.5 15.5t68 33t49.5 36.5q2 16 7.5 31.5t0.5 32.5q-16 55 -64 83.5t-103.5 30t-106 -25.5t-74 -91.5t-33.5 -154.5z" />
<glyph unicode="&#xeb;" horiz-adv-x="661" d="M-2 453q-6 12 0 26q0 276 158 367q79 44 187 8q106 -35 155 -116q55 -89 -6 -169q-77 -100 -321 -119q-60 -4 -110 -8q-5 -200 82 -321q39 -55 103.5 -65.5t129 10t119 62.5t76.5 89q20 28 38 22q30 -10 22 -46q-39 -78 -103.5 -132.5t-140.5 -76.5q-169 -47 -299 77 q-52 52 -74 185q-10 55 -12 110.5t-4 96.5zM63 518q59 6 135 9t120.5 15.5t68 33t49.5 36.5q2 16 7.5 31.5t0.5 32.5q-16 55 -64 83.5t-103.5 30t-106 -25.5t-74 -91.5t-33.5 -154.5zM123 1204v8q6 37 37 48l28 2q31 0 34 -28t-7 -41q-12 -16 -61 -32h-2q-14 4 -19.5 17.5 t-9.5 25.5zM190 1251l3 -2v2h-3zM369 1204v8q6 37 37 48l28 2q31 0 34 -28t-7 -41q-13 -17 -62 -32h-2q-14 4 -19 17.5t-9 25.5zM436 1251l2 -2v2h-2z" />
<glyph unicode="&#xec;" horiz-adv-x="487" d="M14.5 1339q14.5 27 42.5 27q3 0 73.5 -36t118.5 -60.5t89 -47t68.5 -37t29.5 -16.5q36 -12 19 -46.5t-49 -26.5q-24 16 -85 48t-107 56.5t-86 45.5q-91 46 -101 46q-27 20 -12.5 47zM203 788q5 28 24 39q36 20 47 -14q16 -373 84 -737q24 -17 4 -49q-12 -25 -34.5 -28 t-32.5 28q-68 310 -92 761z" />
<glyph unicode="&#xed;" horiz-adv-x="458" d="M14 1122q-17 36 19 47q2 2 29.5 16.5t68.5 37t89 47t90 46.5q99 50 102 50q29 0 43 -27t-13 -47q-15 0 -124 -58t-150 -79.5t-69.5 -38t-40 -20.5t-25 5t-19.5 21zM203 788q5 28 24 39q36 20 47 -14q16 -373 84 -737q24 -17 4 -49q-12 -25 -34.5 -28t-32.5 28 q-68 310 -92 761z" />
<glyph unicode="&#xee;" horiz-adv-x="589" d="M22 1060q-7 17 3 40q63 93 137 177.5t78 88.5q23 33 49 31t41 -31q2 0 29.5 -31.5t63.5 -72.5t71.5 -82t54.5 -60q10 -27 -5.5 -44t-43.5 5q-29 31 -63 66t-63 67q-58 61 -83 89q-4 2 -19.5 -16.5t-39 -46.5t-50 -60.5t-51.5 -61.5q-92 -104 -109 -58zM244 788 q5 28 24 39q36 20 47 -14q16 -373 84 -737q24 -17 4 -49q-12 -25 -34.5 -28t-32.5 28q-68 310 -92 761z" />
<glyph unicode="&#xef;" horiz-adv-x="362" d="M14 1204v8q6 37 37 48l29 2q31 0 34 -28t-12 -44q-8 -12 -57 -29h-2q-14 4 -19.5 17.5t-9.5 25.5zM82 1251l2 -2v2h-2zM143 788q5 27 24 39q36 21 48 -14q17 -387 84 -737q21 -15 6.5 -44.5t-37 -32.5t-32.5 28q-70 316 -93 761zM260 1204v8q6 37 37 48l29 2 q31 0 33.5 -28t-7.5 -41q-12 -16 -61 -32h-2q-14 4 -19.5 17.5t-9.5 25.5zM328 1251l2 -2v2h-2z" />
<glyph unicode="&#xf0;" horiz-adv-x="796" d="M23 440q14 55 66 110.5t122 99.5q156 98 285 102q-61 95 -107 157q-64 -41 -129 -71q-33 -4 -36.5 19.5t12.5 43.5q25 18 53 30.5t59 31.5q-162 201 -309 290q-27 20 -12.5 47t43.5 27q18 -4 24 -14q149 -95 320 -312q41 25 81 49.5t71.5 38t41.5 6t12 -20.5 q3 -32 -28 -50q-66 -30 -137 -74q159 -210 239 -418q105 -270 -54 -442q-38 -41 -93 -63q-88 -31 -192.5 -9.5t-188.5 81t-129 148.5t-14 193zM134 237q76 -89 194 -129q126 -44 196 -12.5t99.5 76.5t36.5 98q22 153 -125 414l-5 -2q-117 4 -258 -78q-302 -176 -138 -367z " />
<glyph unicode="&#xf1;" horiz-adv-x="776" d="M20 831q4 30 38 45q30 13 34 -24v-8q0 -189 4 -381q40 138 108 243q21 33 64 76t92.5 65.5t91.5 13.5t80.5 -48t73.5 -84t63.5 -129t45 -185.5t16.5 -202.5t-33 -171q-2 -2 -2 -6h-2q-12 -29 -33 -27q-38 4 -30 41q43 117 13 312q-27 177 -89 305q-48 95 -118 110 q-79 18 -140 -57.5t-94 -156.5t-49 -167q-24 -124 -40 -392q-1 -17 -11.5 -40t-33 -26t-32.5 28q-6 47 -6 107v151zM70 1110q85 184 154 217q61 29 126 -40q29 -30 57.5 -68.5t59.5 -75.5q14 -18 41 -5t52 42q63 77 63 125q4 30 37 33q32 3 31 -37.5t-29.5 -94t-66.5 -93.5 t-80 -57.5t-69 6.5t-49 56.5t-44.5 63t-45 51t-47 17.5t-53.5 -37.5t-47.5 -82.5t-30.5 -55.5t-27 -5.5q-36 5 -32 41z" />
<glyph unicode="&#xf2;" horiz-adv-x="616" d="M1 261q-2 91 8.5 179t18 113t30 79t56.5 108q83 137 156 126q94 -23 184 -154q79 -115 120 -262q40 -145 3.5 -229t-119.5 -141t-173 -68.5t-168 27.5q-113 56 -116 222zM67 397.5q-4 -75.5 10.5 -139t46.5 -110t82 -59.5q115 -30 277 114q27 29 27 90t-18.5 133 t-51 143.5t-71.5 123.5q-92 122 -152 73q-51 -41 -77.5 -100.5t-47.5 -126t-25 -142zM100.5 1339q14.5 27 42.5 27q3 0 73.5 -36t118.5 -60.5t89 -47t68.5 -37t29.5 -16.5q36 -12 19 -46.5t-49 -26.5q-24 16 -85 48t-107 56.5t-86 45.5q-91 46 -101 46q-27 20 -12.5 47z" />
<glyph unicode="&#xf3;" horiz-adv-x="616" d="M1 261q-2 91 8.5 179t18 113t30 79t56.5 108q83 137 156 126q94 -23 184 -154q79 -115 120 -262q40 -145 3.5 -229t-119.5 -141t-173 -68.5t-168 27.5q-113 56 -116 222zM67 397.5q-4 -75.5 10.5 -139t46.5 -110t82 -59.5q115 -30 277 114q27 29 27 90t-18.5 133 t-51 143.5t-71.5 123.5q-92 122 -152 73q-51 -41 -77.5 -100.5t-47.5 -126t-25 -142zM106 1122q-18 35 19 47q2 2 29.5 16.5t68.5 37t89 47t90 46.5q99 50 102 50q29 0 43.5 -27t-12.5 -47q-16 0 -125 -58t-150 -80q-76 -39 -104 -58q-32 -8 -50 26z" />
<glyph unicode="&#xf4;" horiz-adv-x="616" d="M1 261q-2 91 8.5 179t18 113t30 79t56.5 108q83 137 156 126q94 -23 184 -154q79 -115 120 -262q40 -145 3.5 -229t-119.5 -141t-173 -68.5t-168 27.5q-113 56 -116 222zM26 1060q-7 17 3 40q63 93 137 177.5t78 88.5q23 33 49 31t41 -31q2 0 29.5 -31.5t63.5 -72.5 l72 -82t54 -60q10 -27 -5.5 -44t-43.5 5q-29 31 -62.5 66t-63.5 67q-52 54 -83 89q-4 2 -19.5 -16.5t-39 -46.5t-50 -60.5t-50.5 -61.5q-92 -106 -110 -58zM67 397.5q-4 -75.5 10.5 -139t46.5 -110t82 -59.5q115 -30 277 114q27 29 27 90t-18.5 133t-51 143.5t-71.5 123.5 q-92 122 -152 73q-51 -41 -77.5 -100.5t-47.5 -126t-25 -142z" />
<glyph unicode="&#xf5;" horiz-adv-x="643" d="M4 1110q120 261 220 220q49 -20 118 -112q29 -38 59 -75q14 -18 41 -5t52 42q63 77 63 125q2 14 13.5 23t23.5 10q33 3 32 -37.5t-30 -94t-66.5 -93.5t-79.5 -57.5t-69 6.5t-49.5 56.5t-45 63t-45 51t-47 17.5t-53 -37.5t-47 -82.5t-31 -55.5t-26.5 -5.5t-24.5 12.5 t-8.5 28.5zM20 261q-3 81 8 174t18 118t29.5 79t56.5 108q85 137 157 126q93 -23 183 -154q79 -115 120 -262q40 -145 3.5 -229t-119.5 -141t-173 -68.5t-168 27.5q-111 55 -115 222zM86 397.5q-4 -75.5 10.5 -139t46 -110t81.5 -59.5q116 -30 278 114q50 54 8 223 q-39 155 -123 267q-92 123 -151 73q-51 -41 -78 -100.5t-47.5 -126t-24.5 -142z" />
<glyph unicode="&#xf6;" horiz-adv-x="616" d="M1 261q-2 91 8.5 179t18 113t30 79t56.5 108q83 137 156 126q94 -23 184 -154q79 -115 120 -262q40 -145 3.5 -229t-119.5 -141t-173 -68.5t-168 27.5q-113 56 -116 222zM67 397.5q-4 -75.5 10.5 -139t46.5 -110t82 -59.5q115 -30 277 114q27 29 27 90t-18.5 133 t-51 143.5t-71.5 123.5q-92 122 -152 73q-51 -41 -77.5 -100.5t-47.5 -126t-25 -142zM96 1204v8q6 37 37 48l29 2q31 0 34 -28t-12 -44q-8 -12 -57 -29h-2q-14 4 -19.5 17.5t-9.5 25.5zM164 1251l2 -2v2h-2zM342 1204v8q6 37 37 48l29 2q31 0 33.5 -28t-7.5 -41 q-12 -16 -61 -32h-2q-14 4 -19.5 17.5t-9.5 25.5zM410 1251l2 -2v2h-2z" />
<glyph unicode="&#xf7;" horiz-adv-x="665" d="M-11 744q7 30 34 38q53 2 124.5 5.5t147.5 6.5t148.5 6t125.5 3h17l14 -6l6 -6l4 -23q-12 -37 -41 -41h-14q-31 0 -541 -20q-33 4 -25 37zM258 913v9q6 37 37 47l29 2q31 0 33.5 -28t-7.5 -41q-12 -16 -61 -32h-2q-14 4 -19.5 17.5t-9.5 25.5zM268 567v8q6 37 37 48l29 2 q31 0 34 -28t-12 -44q-8 -13 -57 -29h-2q-14 4 -19.5 17.5t-9.5 25.5zM326 961l2 -3v3h-2zM336 614l2 -2v2h-2z" />
<glyph unicode="&#xf8;" horiz-adv-x="616" d="M1 261q-2 91 8.5 179t18 113t30 79t56.5 108q83 137 156 126q94 -23 184 -154q79 -115 120 -262q40 -145 3.5 -229t-119.5 -141t-173 -68.5t-168 27.5q-113 56 -116 222zM39 -14l23 45q28 53 163 333q210 437 224 486q17 38 45 33q12 -2 19 -13.5t22 -31.5 q-41 -74 -224.5 -454t-210.5 -435q-35 -23 -55 -10.5t-6 47.5zM67 397.5q-4 -75.5 10.5 -139t46.5 -110t82 -59.5q115 -30 277 114q27 29 27 90t-18.5 133t-51 143.5t-71.5 123.5q-92 122 -152 73q-51 -41 -77.5 -100.5t-47.5 -126t-25 -142z" />
<glyph unicode="&#xf9;" horiz-adv-x="677" d="M1 779q1 50 12.5 79t39.5 4q25 -64 27 -215t5 -238t19 -159q37 -160 154 -164q135 68 194.5 153t77 177t10 184t-7.5 174q4 23 19.5 38t40.5 5l10 -8l2 2v-4q14 -14 14 -101l-2 -141q0 -134 20.5 -323t22.5 -217v-2h-2q-10 -30 -26 -34q-32 -9 -43 19v4l-19 295 q-12 -51 -58 -114.5t-109 -112.5q-150 -118 -261 -70q-135 57 -135 572q0 33 -3 90t-2 107zM114.5 1339q14.5 27 43.5 27q2 0 72.5 -36t118.5 -60.5t89 -47t69 -37t30 -16.5q35 -12 18 -47q-17 -34 -49 -26q-24 16 -85 48t-107 56.5t-86 45.5q-91 46 -101 46 q-27 20 -12.5 47z" />
<glyph unicode="&#xfa;" horiz-adv-x="677" d="M1 779q1 50 12.5 79t39.5 4q25 -64 27 -215t5 -238t19 -159q37 -160 154 -164q135 68 194.5 153t77 177t10 184t-7.5 174q4 23 19.5 38t40.5 5l10 -8l2 2v-4q14 -14 14 -101l-2 -141q0 -134 20.5 -323t22.5 -217v-2h-2q-10 -30 -26 -34q-32 -9 -43 19v4l-19 295 q-12 -51 -58 -114.5t-109 -112.5q-150 -118 -261 -70q-135 57 -135 572q0 33 -3 90t-2 107zM121 1122q-17 35 18 47q2 2 30 16.5t69 37t89 47t90 46.5q99 50 101 50q29 0 43.5 -27t-12.5 -47q-14 0 -124 -58t-151 -80q-76 -39 -104 -58q-32 -8 -49 26z" />
<glyph unicode="&#xfb;" horiz-adv-x="677" d="M1 779q1 50 12.5 79t39.5 4q25 -64 27 -215t5 -238t19 -159q37 -160 154 -164q135 68 194.5 153t77 177t10 184t-7.5 174q4 23 19.5 38t40.5 5l10 -8l2 2v-4q14 -14 14 -101l-2 -141q0 -134 20.5 -323t22.5 -217v-2h-2q-10 -30 -26 -34q-32 -9 -43 19v4l-19 295 q-12 -51 -58 -114.5t-109 -112.5q-150 -118 -261 -70q-135 57 -135 572q0 33 -3 90t-2 107zM68 1060q-6 17 4 40q63 93 137 177.5t78 88.5q23 33 49 31t41 -31q2 0 29.5 -31.5t63.5 -72.5l72 -82t54 -60q10 -27 -5.5 -44t-43.5 5q-29 31 -62.5 66t-63.5 67q-52 54 -83 89 q-4 2 -19.5 -16.5t-39 -46.5t-50 -60.5t-51.5 -61.5q-91 -106 -110 -58z" />
<glyph unicode="&#xfc;" horiz-adv-x="677" d="M1 779q1 50 12.5 79t39.5 4q25 -64 27 -215t5 -238t19 -159q37 -160 154 -164q135 68 194.5 153t77 177t10 184t-7.5 174q4 23 19.5 38t40.5 5l10 -8l2 2v-4q14 -14 14 -101l-2 -141q0 -134 20.5 -323t22.5 -217v-2h-2q-10 -30 -26 -34q-32 -9 -43 19v4l-19 295 q-12 -51 -58 -114.5t-109 -112.5q-150 -118 -261 -70q-135 57 -135 572q0 33 -3 90t-2 107zM143 1204v8q6 37 37 48l29 2q31 0 34 -28t-12 -44q-8 -12 -57 -29h-2q-14 4 -19.5 17.5t-9.5 25.5zM211 1251l2 -2v2h-2zM389 1204v8q6 37 37 48l29 2q31 0 34 -28t-12 -44 q-8 -12 -57 -29h-2q-14 4 -19.5 17.5t-9.5 25.5zM457 1251l2 -2v2h-2z" />
<glyph unicode="&#xfd;" horiz-adv-x="741" d="M0 803q5 29 24 39q37 19 48 -15q8 -53 12 -128.5t12 -159.5t22.5 -168t43.5 -153q64 -154 188 -161q84 -7 163 43q69 43 103 109q17 107 3.5 224.5t-20.5 184t-1 142.5q4 25 15.5 41t30.5 -3t28.5 -47t12.5 -60q5 -53 6 -105.5t4 -132.5t4 -175.5t-4 -196.5t-18 -189 q-30 -203 -95 -248t-148.5 -54.5t-162 -1t-140 22.5t-80.5 14q-44 5 -18 55q6 11 16 19q10 4 8 8t10 -2t67.5 -22.5t126.5 -22.5q271 -23 325 150q30 93 30 176v94q-260 -181 -410 -68q-162 123 -194 587q-8 116 -12 204zM131 1122q-17 36 19 47q2 2 29.5 16.5t68.5 37 t89 47t90 46.5q99 50 101 50q29 0 43.5 -27t-12.5 -47q-15 0 -124 -58t-150 -80q-81 -42 -105 -58q-32 -8 -49 26z" />
<glyph unicode="&#xfe;" horiz-adv-x="935" d="M82 1653q2 16 14.5 28.5t24.5 16.5t22.5 -3t10.5 -30l14 -659q193 55 332 31.5t228 -99.5t128 -186.5t33 -228t-56.5 -227.5t-140.5 -182.5t-220 -92t-296 41.5l-6 -561q0 -70 -61 -30q-7 13 -8 66.5t1 325.5q4 568 -20 1789zM168 932l8 -791q145 -59 260 -44.5t196 74.5 t125 155.5t50 198t-29 198.5t-114 161q-178 146 -496 48z" />
<glyph unicode="&#xff;" horiz-adv-x="741" d="M0 803q5 29 24 39q37 19 48 -15q8 -53 12 -128.5t12 -159.5t22.5 -168t43.5 -153q64 -154 188 -161q84 -7 163 43q69 43 103 109q17 107 3.5 224.5t-20.5 184t-1 142.5q4 25 15.5 41t30.5 -3t28.5 -47t12.5 -60q5 -53 6 -105.5t4 -132.5t4 -175.5t-4 -196.5t-18 -189 q-30 -203 -95 -248t-148.5 -54.5t-162 -1t-140 22.5t-80.5 14q-44 5 -18 55q6 11 16 19q10 4 8 8t10 -2t67.5 -22.5t126.5 -22.5q271 -23 325 150q30 93 30 176v94q-260 -181 -410 -68q-162 123 -194 587q-8 116 -12 204zM176 1204v8q6 37 37 48l29 2q31 0 34 -28t-12 -44 q-8 -12 -57 -29h-2q-14 4 -19.5 17.5t-9.5 25.5zM244 1251l2 -2v2h-2zM422 1204v8q6 37 37 48l28 2q31 0 34 -28t-7 -41q-12 -16 -61 -32h-2q-14 4 -19.5 17.5t-9.5 25.5zM489 1251l3 -2v2h-3z" />
<glyph unicode="&#x152;" horiz-adv-x="1488" d="M2 770q-10 172 43 354q18 68 72 139q89 120 155 171q162 115 240 141.5t389 24t492 -0.5q20 0 28.5 -10t4.5 -25q-8 -36 -42 -40q-178 -2 -373.5 -7.5t-373.5 -9.5l2 -620q8 4 16 4l463 10q41 0 34 -35q-3 -14 -14.5 -26.5t-27.5 -14.5l-471 -10l2 -737q132 0 300 11 q305 20 448 11q18 0 18 -22.5t-6 -31.5t-19 -5q-122 -13 -310 -19q-315 -10 -439 -18v-10q-230 27 -397 206q-214 228 -234 570zM108 594q39 -156 128.5 -276.5t222.5 -190.5q53 -29 112 -43v29q0 81 -3 575.5t-3 827.5q-292 -111 -400 -320q-141 -272 -57 -602z" />
<glyph unicode="&#x153;" horiz-adv-x="1024" d="M1 261q-2 91 8.5 179t18 113t30 79t56.5 108q83 137 156 126q86 -21 156 -121q105 187 296 121q106 -36 156 -116q54 -87 -8 -168q-79 -103 -320 -119q-61 -4 -110 -8q-5 -199 82 -322q39 -55 103.5 -65.5t129 10t119 62.5t76.5 89q20 27 38 22q30 -9 22 -46 q-39 -78 -103.5 -132.5t-140.5 -76t-155 -4.5q-83 19 -152 88h-2q-82 -57 -172 -68.5t-168 27.5q-113 56 -116 222zM78 258q51 -226 248 -158q43 14 94 50q-14 27 -25.5 95t-13.5 123.5t-4 96.5q-6 12 0 27q0 94 16 163q-12 18 -37.5 54t-65.5 60t-82 -10q-63 -51 -114 -214 q-48 -150 -16 -287zM442 530q59 6 135 9.5t120.5 15.5t67.5 32.5t50 37.5q2 16 7 31.5t1 31.5q-16 55 -64 84t-103.5 30t-106 -26t-74 -91.5t-33.5 -154.5z" />
<glyph unicode="&#x178;" horiz-adv-x="1249" d="M-2 1573q5 29 26 39q41 20 52 -15q133 -219 249.5 -435t249.5 -435q43 63 112 172t151 238t167.5 265t159.5 251q24 32 57 16q30 -14 13 -53q-141 -223 -226 -353t-147.5 -225.5t-114 -175.5t-88 -136t-49.5 -77q2 -117 11 -610q0 -16 -10.5 -28.5t-24.5 -15.5 q-32 -7 -43 30q-2 82 -2 157v151q0 180 -11 312q-62 132 -266.5 473.5t-265.5 454.5zM434 1825v8q6 37 37 47l29 2q31 0 34 -27.5t-8 -40.5q-11 -15 -61 -32h-2q-17 5 -29 43zM502 1872l2 -2v2h-2zM680 1825v8q6 37 37 47l28 2q31 0 34 -27.5t-7 -40.5q-11 -15 -61 -32h-2 q-17 5 -29 43zM748 1872l2 -2v2h-2z" />
<glyph unicode="&#x2c6;" horiz-adv-x="595" d="M26 1748q-7 17 3 40q63 93 137 177.5t78 88.5q23 33 49 31t41 -31q2 0 29.5 -31.5t63.5 -72.5l72 -82t54 -60q10 -27 -5.5 -44t-43.5 5q-29 31 -62.5 66t-63.5 67q-52 54 -83 89q-4 2 -19.5 -16.5t-39 -46t-50 -60.5t-50.5 -62q-92 -106 -110 -58z" />
<glyph unicode="&#x2dc;" horiz-adv-x="720" d="M25 1741q85 184 154 217q60 28 126 -40q29 -30 57.5 -69t59.5 -75q14 -18 40.5 -5t51.5 43q64 75 64 123q2 14 13 23.5t23 10.5q33 3 32 -38t-29.5 -94t-66.5 -93t-80 -57.5t-69 5t-49 56.5t-44.5 64.5t-45 51t-47.5 17.5t-53.5 -37.5t-47 -82.5t-30.5 -55.5t-26 -5.5 q-37 5 -33 41z" />
<glyph unicode="&#x2000;" horiz-adv-x="1047" />
<glyph unicode="&#x2001;" horiz-adv-x="2095" />
<glyph unicode="&#x2002;" horiz-adv-x="1047" />
<glyph unicode="&#x2003;" horiz-adv-x="2095" />
<glyph unicode="&#x2004;" horiz-adv-x="698" />
<glyph unicode="&#x2005;" horiz-adv-x="523" />
<glyph unicode="&#x2006;" horiz-adv-x="349" />
<glyph unicode="&#x2007;" horiz-adv-x="349" />
<glyph unicode="&#x2008;" horiz-adv-x="261" />
<glyph unicode="&#x2009;" horiz-adv-x="419" />
<glyph unicode="&#x200a;" horiz-adv-x="116" />
<glyph unicode="&#x2010;" horiz-adv-x="526" d="M-11 696q7 31 34 39q106 4 210.5 12.5t212.5 10.5h17l14 -6l6 -7q0 -2 2 -5t2 -17q-12 -37 -41 -41h-14q-106 -2 -210 -10.5t-208 -12.5q-33 4 -25 37z" />
<glyph unicode="&#x2011;" horiz-adv-x="526" d="M-11 696q7 31 34 39q106 4 210.5 12.5t212.5 10.5h17l14 -6l6 -7q0 -2 2 -5t2 -17q-12 -37 -41 -41h-14q-106 -2 -210 -10.5t-208 -12.5q-33 4 -25 37z" />
<glyph unicode="&#x2012;" horiz-adv-x="526" d="M-11 696q7 31 34 39q106 4 210.5 12.5t212.5 10.5h17l14 -6l6 -7q0 -2 2 -5t2 -17q-12 -37 -41 -41h-14q-106 -2 -210 -10.5t-208 -12.5q-33 4 -25 37z" />
<glyph unicode="&#x2013;" horiz-adv-x="1051" d="M-9 696q15 31 70 39q217 4 431.5 12.5t435.5 10.5h35l29 -6l12 -7q0 -2 4 -5t4 -17q-25 -37 -84 -41h-29q-217 -2 -430 -10.5t-427 -12.5q-67 4 -51 37z" />
<glyph unicode="&#x2014;" horiz-adv-x="2075" d="M-6 696q29 31 140 39q434 4 862.5 12.5t871.5 10.5h70l57 -6l25 -7q0 -2 8 -5t8 -17q-49 -37 -168 -41h-57q-435 -2 -861.5 -10.5t-852.5 -12.5q-135 4 -103 37z" />
<glyph unicode="&#x202f;" horiz-adv-x="419" />
<glyph unicode="&#x205f;" horiz-adv-x="523" />
<glyph unicode="&#x20ac;" horiz-adv-x="786" d="M-3 860q8 31 34 39l50 2h21q11 0 27 2q25 204 141 323q127 132 348 124q20 0 27.5 -9.5t6.5 -21.5q-2 -30 -29 -43q-189 8 -297 -96q-97 -93 -123 -269q4 0 50 4.5t106.5 7.5t123 7t90 4t35.5 -10.5t5 -24.5t-14 -26.5t-37 -14.5t-85 -5t-117 -7q-147 -10 -163 -10 q-4 -86 18 -166q260 20 383 37v-2q16 2 23.5 -6.5t7.5 -20.5q0 -32 -27 -45q-21 -10 -168 -22.5t-192 -18.5q99 -224 286 -262q70 -15 160 6h8q25 -4 25 -21q5 -11 -12 -39q-12 -12 -29 -16q-195 -26 -332 75q-114 84 -180 247q-94 -11 -120.5 -10t-32 12.5t-2.5 23.5 q7 30 34 39q25 0 41 2t25.5 3t29.5 5q-23 82 -18 172q-35 -4 -51.5 -4t-50.5 -2q-34 4 -26 37z" />
<glyph unicode="&#xe000;" horiz-adv-x="870" d="M0 0v870h870v-870h-870z" />
</font>
</defs>
</svg>
