<?xml version="1.0" standalone="no"?>
<!DOCTYPE svg PUBLIC "-//W3C//DTD SVG 1.1//EN" "http://www.w3.org/Graphics/SVG/1.1/DTD/svg11.dtd" >
<svg xmlns="http://www.w3.org/2000/svg">
<metadata></metadata>
<defs>
<font id="TallDarkAndHandsomeCondensed" horiz-adv-x="544" >
<font-face units-per-em="2048" ascent="1638" descent="-410" />
<missing-glyph horiz-adv-x="479" />
<glyph horiz-adv-x="0" />
<glyph horiz-adv-x="2048" />
<glyph unicode="&#xd;" horiz-adv-x="1024" />
<glyph unicode=" "  horiz-adv-x="479" />
<glyph unicode="&#x09;" horiz-adv-x="479" />
<glyph unicode="&#xa0;" horiz-adv-x="479" />
<glyph unicode="!" horiz-adv-x="180" d="M29 0h118v119h-118v-119zM29 240h118v1194h-118v-1194z" />
<glyph unicode="&#x22;" horiz-adv-x="425" d="M33 1075h119v359h-119v-359zM272 1075h119v359h-119v-359z" />
<glyph unicode="#" horiz-adv-x="522" d="M23 418h59v-418h119v418h121v-418h118v418h60v119h-60v358h60v121h-60v418h-118v-418h-121v418h-119v-418h-59v-121h59v-358h-59v-119zM201 537v358h121v-358h-121z" />
<glyph unicode="$" horiz-adv-x="518" d="M20 299q0 -74 53.5 -127t127.5 -53v-119h118v119q74 0 126 52t53 128v59q4 274 -174 394l-5 4v424q60 -40 60 -105h119v60q0 76 -52.5 128t-126.5 52v119h-118v-119q-74 0 -127.5 -53.5t-53.5 -126.5v-60q-2 -272 177 -393l4 -4v-424q-62 39 -62 104h-119v-59zM139 1075 q0 65 62 105v-316q-57 76 -58 152zM319 254v315q55 -72 58 -151l2 -60q0 -62 -60 -104z" />
<glyph unicode="%" horiz-adv-x="522" d="M23 0h118l359 1434h-119zM23 1315q0 -25 16 -43t43 -19h59q25 0 42 17.5t18 44.5v59q0 27 -17.5 43t-42.5 17h-59q-27 0 -41 -19q-18 -16 -18 -41v-59zM322 59q0 -25 17 -42t42 -17h59q25 0 42 16t18 43v60q-1 27 -17 43t-43 16h-59q-27 0 -43 -18t-16 -41v-60z" />
<glyph unicode="&#x26;" horiz-adv-x="649" d="M31 178q0 -72 53 -125t125 -53h420v119h-62l62 59l-90 90l-31 -28v389q0 36 -35 71q-23 16 -51 17q25 0 51 16q2 4 4 5t6 5q25 25 25 62v448q0 76 -52 128t-126 53h-121q-72 0 -125 -53.5t-53 -127.5v-448q0 -37 26 -62q2 -4 4 -5t16 -11t42 -10q-27 0 -53 -17 q-2 -4 -4.5 -5t-4.5 -5q-27 -25 -26 -61v-451zM150 240v297q0 47 34 86q39 35 87 34.5t83 -34.5q35 -39 35 -86v-297q0 -47 -35 -84t-83 -37t-87 35q-35 39 -34 86zM150 895v299q0 47 34 86q39 35 87 35t83 -37t35 -84v-299q0 -45 -35 -82t-83 -37t-87 35q-35 39 -34 84z " />
<glyph unicode="'" horiz-adv-x="188" d="M33 1075h119v359h-119v-359z" />
<glyph unicode="(" horiz-adv-x="288" d="M31 178q0 -72 53 -125t125 -53h61v119q-47 0 -86 35q-35 39 -34 86v954q0 47 34 86q39 35 86 35v119h-61q-72 0 -125 -53.5t-53 -127.5v-1075z" />
<glyph unicode=")" horiz-adv-x="288" d="M16 0h60q74 0 127 53t53 125v1075q0 74 -53 127.5t-127 53.5h-60v-119q49 0 84 -35t35 -86v-954q0 -51 -34.5 -86t-84.5 -35v-119z" />
<glyph unicode="*" horiz-adv-x="514" d="M18 1194h119l-92 -135l92 -64l121 140l119 -140l94 64l-94 135h119v121h-179v119h-120v-119h-179v-121z" />
<glyph unicode="+" horiz-adv-x="495" d="M8 178h178v-178h121v178h178v121h-178v178h-121v-178h-178v-121z" />
<glyph unicode="," horiz-adv-x="176" d="M31 0h59l60 59v119h-119v-119h59z" />
<glyph unicode="-" d="M33 178h477v121h-477v-121z" />
<glyph unicode="." horiz-adv-x="188" d="M33 0h119v119h-119v-119z" />
<glyph unicode="/" horiz-adv-x="485" d="M4 0h119l358 1434h-119z" />
<glyph unicode="0" horiz-adv-x="540" d="M31 178q0 -72 53 -125t125 -53h121q74 0 126 52t52 126v1075q0 76 -52 128t-126 53h-121q-72 0 -125 -53.5t-53 -127.5v-1075zM150 240v954q0 47 34 86q39 35 87 35t83 -37t35 -84v-954q0 -47 -35 -84t-83 -37t-87 35q-35 39 -34 86z" />
<glyph unicode="1" horiz-adv-x="337" d="M4 1182l178 121v-1303h121v1434h-121l-178 -119v-133z" />
<glyph unicode="2" horiz-adv-x="530" d="M31 0h477v119h-358l315 717q47 104 43 239v178q0 76 -52 128t-126 53h-121q-72 0 -125 -53.5t-53 -127.5v-178h119v119q0 47 34 86q39 35 87 35t83 -37t35 -84l-2 -119v-59q-4 -47 -20 -88l-336 -797v-131z" />
<glyph unicode="3" horiz-adv-x="538" d="M29 178q0 -72 53 -125t125 -53h121q74 0 126 52t52 126v451q0 36 -35 71q-23 16 -51 17q25 0 51 16q2 4 4 5t6 5q25 25 25 62v448q0 76 -52 128t-126 53h-121q-72 0 -125 -53.5t-53 -127.5v-178h118v119q0 47 35 86q39 35 87 35t83 -37t35 -84v-299q0 -45 -35 -82 t-84 -37h-61v-119h61q49 0 84 -34q35 -39 35 -86v-297q0 -47 -35 -84t-83 -37t-87 35q-35 39 -35 86v118h-118v-180z" />
<glyph unicode="4" horiz-adv-x="497" d="M8 358h240v-358h119v358h118v119h-118v957h-119l-240 -957v-119zM127 477l121 498v-498h-121z" />
<glyph unicode="5" horiz-adv-x="530" d="M31 178q0 -72 53 -125t125 -53h121q74 0 126 52t52 126v543q0 68 -51 121t-127 53h-180v420h358v119h-477v-658h239q49 0 84 -34.5t35 -84.5v-417q0 -47 -35 -84t-83 -37t-87 35q-35 39 -34 86v118h-119v-180z" />
<glyph unicode="6" horiz-adv-x="538" d="M31 178q0 -72 53 -125t125 -53h121q74 0 126 52t52 126v543q0 68 -41 111t-72 53t-65 10h-180v299q0 47 34 86q39 35 87 35t83 -37t35 -84v-119h119v178q0 76 -52 128t-126 53h-121q-72 0 -125 -53.5t-53 -127.5v-1075zM150 240v536h120q49 0 84 -34.5t35 -84.5v-417 q0 -47 -35 -84t-83 -37t-87 35q-35 39 -34 86z" />
<glyph unicode="7" horiz-adv-x="497" d="M16 0h119l359 1434h-478v-119h328z" />
<glyph unicode="8" horiz-adv-x="540" d="M31 178q0 -72 53 -125t125 -53h121q74 0 126 52t52 126v451q0 36 -35 71q-23 16 -51 17q25 0 51 16q2 4 4 5t6 5q25 25 25 62v448q0 76 -52 128t-126 53h-121q-72 0 -125 -53.5t-53 -127.5v-448q0 -37 26 -62q2 -4 4 -5t16 -11t42 -10q-27 0 -53 -17q-2 -4 -4.5 -5 t-4.5 -5q-27 -25 -26 -61v-451zM150 240v297q0 47 34 86q39 35 87 34.5t83 -34.5q35 -39 35 -86v-297q0 -47 -35 -84t-83 -37t-87 35q-35 39 -34 86zM150 895v299q0 47 34 86q39 35 87 35t83 -37t35 -84v-299q0 -45 -35 -82t-83 -37t-87 35q-35 39 -34 84z" />
<glyph unicode="9" horiz-adv-x="540" d="M31 178q0 -72 53 -125t125 -53h121q74 0 126 52t52 126v1075q0 76 -52 128t-126 53h-121q-72 0 -125 -53.5t-53 -127.5v-540q0 -70 53 -123q46 -53 125 -53h180v-297q0 -47 -35 -84t-83 -37t-87 35q-35 39 -34 86v118h-119v-180zM150 776v418q0 47 34 86q39 35 87 35 t83 -37t35 -84v-537h-119q-47 0 -86 35q-35 35 -34 84z" />
<glyph unicode=":" horiz-adv-x="169" d="M33 0h119v119h-119v-119zM33 240h119v118h-119v-118z" />
<glyph unicode=";" horiz-adv-x="178" d="M29 0h59l59 59v119h-118v-119h59zM29 299h118v119h-118v-119z" />
<glyph unicode="&#x3c;" horiz-adv-x="499" d="M0 717l477 -418v147l-299 271l299 270v148z" />
<glyph unicode="=" horiz-adv-x="526" d="M33 0h477v119h-477v-119zM33 244h477v121h-477v-121z" />
<glyph unicode="&#x3e;" horiz-adv-x="509" d="M33 299l477 418l-477 418v-148l299 -270l-299 -271v-147z" />
<glyph unicode="?" horiz-adv-x="505" d="M20 0h119v119h-119v-119zM20 240h119v178q0 49 35 84t86 35h59q74 0 127 53q51 55 52 123v540q0 76 -52.5 128t-126.5 53h-120q-72 0 -125.5 -53.5t-53.5 -127.5v-178h119v119q0 47 35 86q39 35 87 35t83 -37t35 -84v-418q0 -49 -35 -84t-84 -35h-61q-72 0 -125.5 -53 t-53.5 -127v-237z" />
<glyph unicode="@" horiz-adv-x="540" d="M31 178q0 -72 53 -125t125 -53h299v119h-238q-47 0 -86 35q-35 39 -34 86v954q0 47 34 86q39 35 87 35t83 -37t35 -84v-866q0 -29 -29 -29h-2q-28 0 -28 29v866q0 25 -16.5 42t-43.5 17t-44 -17t-17 -42v-954q0 -25 18.5 -43.5t42.5 -18.5h179q25 0 43 19q16 20 16 41 v1015q0 76 -52 128t-126 53h-121q-72 0 -125 -53.5t-53 -127.5v-1075z" />
<glyph unicode="A" horiz-adv-x="507" d="M14 0h131l39 358h140l36 -358h132l-179 1434h-120zM197 477l57 545l57 -545h-114z" />
<glyph unicode="B" horiz-adv-x="542" d="M33 0h299q74 0 126 52t52 126v451q0 36 -35 71q-23 16 -51 17q25 0 51 16q2 4 4 5t6 5q25 25 25 62v448q0 76 -52 128t-126 53h-299v-1434zM152 119v538h120h3q47 0 81 -36q35 -37 35 -84v-297q0 -47 -35 -84t-84 -37h-120zM152 776v539h120q49 0 84 -37t35 -84v-299 q0 -45 -35 -82t-84 -37h-120z" />
<glyph unicode="C" horiz-adv-x="538" d="M31 178q0 -72 53 -125t125 -53h121q74 0 126 52t52 126v180h-119v-118q0 -47 -35 -84t-83 -37t-87 35q-35 39 -34 86v954q0 47 34 86q39 35 87 35t83 -37t35 -84v-119h119v178q0 76 -52 128t-126 53h-121q-72 0 -125 -53.5t-53 -127.5v-1075z" />
<glyph unicode="D" horiz-adv-x="542" d="M33 0h299q74 0 126 52t52 126v1075q0 76 -52 128t-126 53h-299v-1434zM152 119v1196h120q49 0 84 -37t35 -84v-954q0 -47 -35 -84t-84 -37h-120z" />
<glyph unicode="E" horiz-adv-x="518" d="M33 0h477v119h-358v538h358v119h-358v539h358v119h-477v-1434z" />
<glyph unicode="F" horiz-adv-x="509" d="M33 0h119v657h358v119h-358v539h358v119h-477v-1434z" />
<glyph unicode="G" horiz-adv-x="538" d="M31 178q0 -72 53 -125t125 -53h121q74 0 126 52t52 126v539h-238v-119h119v-358q0 -47 -35 -84t-83 -37t-87 35q-35 39 -34 86v954q0 47 34 86q39 35 87 35t83 -37t35 -84v-119h119v178q0 76 -52 128t-126 53h-121q-72 0 -125 -53.5t-53 -127.5v-1075z" />
<glyph unicode="H" d="M33 0h119v657h239v-657h119v1434h-119v-658h-239v658h-119v-1434z" />
<glyph unicode="I" horiz-adv-x="188" d="M33 0h119v1434h-119v-1434z" />
<glyph unicode="J" horiz-adv-x="514" d="M4 178q0 -72 53.5 -125t124.5 -53h121q74 0 126 52t52 126v1256h-119v-1194q0 -47 -34 -86q-35 -35 -83 -35t-87 35q-35 39 -35 86v118h-119v-180z" />
<glyph unicode="K" horiz-adv-x="536" d="M33 0h119v680l227 -680h131l-238 717l238 717h-131l-227 -682v682h-119v-1434z" />
<glyph unicode="L" horiz-adv-x="509" d="M33 0h477v119h-358v1315h-119v-1434z" />
<glyph unicode="M" horiz-adv-x="663" d="M33 0h119v956l120 -956h119l119 956v-956h121v1434h-193l-106 -1016l-109 1016h-190v-1434z" />
<glyph unicode="N" d="M33 0h119v1067l174 -1067h184v1434h-119v-1065l-174 1065h-184v-1434z" />
<glyph unicode="O" horiz-adv-x="540" d="M31 178q0 -72 53 -125t125 -53h121q74 0 126 52t52 126v1075q0 76 -52 128t-126 53h-121q-72 0 -125 -53.5t-53 -127.5v-1075zM150 240v954q0 47 34 86q39 35 87 35t83 -37t35 -84v-954q0 -47 -35 -84t-83 -37t-87 35q-35 39 -34 86z" />
<glyph unicode="P" horiz-adv-x="518" d="M33 0h119v657h180q76 0 127 52.5t51 126.5v417q0 76 -52 128t-126 53h-299v-1434zM152 776v539h120q49 0 84 -37t35 -84v-299q0 -45 -35 -82t-84 -37h-120z" />
<glyph unicode="Q" horiz-adv-x="647" d="M33 178q0 -72 53 -125t125 -53h420v119h-129q8 25 8 59v1075q0 76 -52 128t-126 53h-121q-72 0 -125 -53.5t-53 -127.5v-1075zM152 240v954q0 47 34 86q39 35 87 35t83 -37t35 -84v-954q0 -47 -35 -84t-83 -37t-87 35q-35 39 -34 86z" />
<glyph unicode="R" horiz-adv-x="542" d="M33 0h119v657h120q49 0 84 -34q35 -39 35 -86v-537h119v629q0 36 -35 71q-23 16 -51 17q25 0 51 16q2 4 4 5t6 5q25 25 25 62v448q0 76 -52 128t-126 53h-299v-1434zM152 776v539h120q49 0 84 -37t35 -84v-299q0 -45 -35 -82t-84 -37h-120z" />
<glyph unicode="S" horiz-adv-x="538" d="M31 178q0 -72 53 -125t127 -53h119q74 0 126 52t52 126v180v12q0 265 -174 382q-176 123 -180 264v59l-4 119q0 49 35.5 85t84.5 36t84 -37t35 -84v-119h119v178q0 76 -52 128t-126 53h-119q-74 0 -127 -53.5t-53 -127.5v-178v-6q0 -267 176 -387q178 -125 180 -264 l2 -60v-118q0 -47 -35 -84t-84 -37t-85 36t-35 85v118h-119v-180z" />
<glyph unicode="T" horiz-adv-x="495" d="M8 1315h178v-1315h121v1315h178v119h-477v-119z" />
<glyph unicode="U" horiz-adv-x="542" d="M33 178q0 -72 53 -125t125 -53h121q74 0 126 52t52 126v1256h-119v-1194q0 -47 -35 -84t-83 -37t-87 35q-35 39 -34 86v1194h-119v-1256z" />
<glyph unicode="V" horiz-adv-x="507" d="M14 1434l179 -1434h120l179 1434h-132l-106 -1016l-109 1016h-131z" />
<glyph unicode="W" horiz-adv-x="868" d="M23 1434l178 -1434h121l112 907l115 -907h119l178 1434h-131l-107 -1016l-108 1016h-131l-107 -1016l-108 1016h-131z" />
<glyph unicode="X" horiz-adv-x="530" d="M27 0h125l114 461l113 -461h125l-176 717l176 717h-125l-113 -461l-114 461h-125l176 -717z" />
<glyph unicode="Y" horiz-adv-x="501" d="M12 1434l178 -717v-717h121v717l178 717h-124l-113 -461l-115 461h-125z" />
<glyph unicode="Z" horiz-adv-x="512" d="M16 0h478v119h-322l322 1315h-478v-119h324z" />
<glyph unicode="[" horiz-adv-x="286" d="M33 0h239v119h-120v1196h120v119h-239v-1434z" />
<glyph unicode="\" horiz-adv-x="485" d="M4 1434l358 -1434h119l-358 1434h-119z" />
<glyph unicode="]" horiz-adv-x="286" d="M12 0h240v1434h-240v-119h119v-1196h-119v-119z" />
<glyph unicode="^" horiz-adv-x="501" d="M12 895h119l121 299l119 -299h118l-237 539z" />
<glyph unicode="_" d="M33 0h477v119h-477v-119z" />
<glyph unicode="`" horiz-adv-x="264" d="M10 1434l121 -240h119l-119 240h-121z" />
<glyph unicode="a" horiz-adv-x="509" d="M16 0h131l39 358h140l36 -358h132l-179 1434h-120zM199 477l57 545l57 -545h-114z" />
<glyph unicode="b" horiz-adv-x="542" d="M33 0h299q74 0 126 52t52 126v451q0 36 -35 71q-23 16 -51 17q25 0 51 16q2 4 4 5t6 5q25 25 25 62v448q0 76 -52 128t-126 53h-299v-1434zM152 119v538h120h3q47 0 81 -36q35 -37 35 -84v-297q0 -47 -35 -84t-84 -37h-120zM152 776v539h120q49 0 84 -37t35 -84v-299 q0 -45 -35 -82t-84 -37h-120z" />
<glyph unicode="c" horiz-adv-x="538" d="M31 178q0 -72 53 -125t125 -53h121q74 0 126 52t52 126v180h-119v-118q0 -47 -35 -84t-83 -37t-87 35q-35 39 -34 86v954q0 47 34 86q39 35 87 35t83 -37t35 -84v-119h119v178q0 76 -52 128t-126 53h-121q-72 0 -125 -53.5t-53 -127.5v-1075z" />
<glyph unicode="d" horiz-adv-x="542" d="M33 0h299q74 0 126 52t52 126v1075q0 76 -52 128t-126 53h-299v-1434zM152 119v1196h120q49 0 84 -37t35 -84v-954q0 -47 -35 -84t-84 -37h-120z" />
<glyph unicode="e" horiz-adv-x="518" d="M33 0h477v119h-358v538h358v119h-358v539h358v119h-477v-1434z" />
<glyph unicode="f" horiz-adv-x="509" d="M33 0h119v657h358v119h-358v539h358v119h-477v-1434z" />
<glyph unicode="g" horiz-adv-x="538" d="M31 178q0 -72 53 -125t125 -53h121q74 0 126 52t52 126v539h-238v-119h119v-358q0 -47 -35 -84t-83 -37t-87 35q-35 39 -34 86v954q0 47 34 86q39 35 87 35t83 -37t35 -84v-119h119v178q0 76 -52 128t-126 53h-121q-72 0 -125 -53.5t-53 -127.5v-1075z" />
<glyph unicode="h" d="M33 0h119v657h239v-657h119v1434h-119v-658h-239v658h-119v-1434z" />
<glyph unicode="i" horiz-adv-x="188" d="M33 0h119v1434h-119v-1434z" />
<glyph unicode="j" horiz-adv-x="514" d="M4 178q0 -72 53.5 -125t124.5 -53h121q74 0 126 52t52 126v1256h-119v-1194q0 -47 -34 -86q-35 -35 -83 -35t-87 35q-35 39 -35 86v118h-119v-180z" />
<glyph unicode="k" horiz-adv-x="536" d="M33 0h119v680l227 -680h131l-238 717l238 717h-131l-227 -682v682h-119v-1434z" />
<glyph unicode="l" horiz-adv-x="509" d="M33 0h477v119h-358v1315h-119v-1434z" />
<glyph unicode="m" horiz-adv-x="663" d="M33 0h119v956l120 -956h119l119 956v-956h121v1434h-193l-106 -1016l-109 1016h-190v-1434z" />
<glyph unicode="n" d="M33 0h119v1067l174 -1067h184v1434h-119v-1065l-174 1065h-184v-1434z" />
<glyph unicode="o" horiz-adv-x="540" d="M31 178q0 -72 53 -125t125 -53h121q74 0 126 52t52 126v1075q0 76 -52 128t-126 53h-121q-72 0 -125 -53.5t-53 -127.5v-1075zM150 240v954q0 47 34 86q39 35 87 35t83 -37t35 -84v-954q0 -47 -35 -84t-83 -37t-87 35q-35 39 -34 86z" />
<glyph unicode="p" horiz-adv-x="518" d="M33 0h119v657h180q76 0 127 52.5t51 126.5v417q0 76 -52 128t-126 53h-299v-1434zM152 776v539h120q49 0 84 -37t35 -84v-299q0 -45 -35 -82t-84 -37h-120z" />
<glyph unicode="q" horiz-adv-x="647" d="M33 178q0 -72 53 -125t125 -53h420v119h-129q8 25 8 59v1075q0 76 -52 128t-126 53h-121q-72 0 -125 -53.5t-53 -127.5v-1075zM152 240v954q0 47 34 86q39 35 87 35t83 -37t35 -84v-954q0 -47 -35 -84t-83 -37t-87 35q-35 39 -34 86z" />
<glyph unicode="r" horiz-adv-x="542" d="M33 0h119v657h120q49 0 84 -34q35 -39 35 -86v-537h119v629q0 36 -35 71q-23 16 -51 17q25 0 51 16q2 4 4 5t6 5q25 25 25 62v448q0 76 -52 128t-126 53h-299v-1434zM152 776v539h120q49 0 84 -37t35 -84v-299q0 -45 -35 -82t-84 -37h-120z" />
<glyph unicode="s" horiz-adv-x="538" d="M31 178q0 -72 53 -125t127 -53h119q74 0 126 52t52 126v180v12q0 265 -174 382q-176 123 -180 264v59l-4 119q0 49 35.5 85t84.5 36t84 -37t35 -84v-119h119v178q0 76 -52 128t-126 53h-119q-74 0 -127 -53.5t-53 -127.5v-178v-6q0 -267 176 -387q178 -125 180 -264 l2 -60v-118q0 -47 -35 -84t-84 -37t-85 36t-35 85v118h-119v-180z" />
<glyph unicode="t" horiz-adv-x="495" d="M8 1315h178v-1315h121v1315h178v119h-477v-119z" />
<glyph unicode="u" horiz-adv-x="542" d="M33 178q0 -72 53 -125t125 -53h121q74 0 126 52t52 126v1256h-119v-1194q0 -47 -35 -84t-83 -37t-87 35q-35 39 -34 86v1194h-119v-1256z" />
<glyph unicode="v" horiz-adv-x="507" d="M14 1434l179 -1434h120l179 1434h-132l-106 -1016l-109 1016h-131z" />
<glyph unicode="w" horiz-adv-x="868" d="M23 1434l178 -1434h121l112 907l115 -907h119l178 1434h-131l-107 -1016l-108 1016h-131l-107 -1016l-108 1016h-131z" />
<glyph unicode="x" horiz-adv-x="530" d="M27 0h125l114 461l113 -461h125l-176 717l176 717h-125l-113 -461l-114 461h-125l176 -717z" />
<glyph unicode="y" horiz-adv-x="501" d="M12 1434l178 -717v-717h121v717l178 717h-124l-113 -461l-115 461h-125z" />
<glyph unicode="z" horiz-adv-x="512" d="M16 0h478v119h-322l322 1315h-478v-119h324z" />
<glyph unicode="{" horiz-adv-x="387" d="M6 662q49 0 84 -35t35 -82v-367q0 -72 53 -125t127 -53h60v119q-49 0 -84 34.5t-35 86.5v395q-4 39 -17.5 51t-14.5 14t-14.5 11.5t-41.5 9.5q29 0 51 16q33 37 37 70v387q0 51 35 86t84 35v119h-60q-74 0 -127 -53.5t-53 -127.5v-356q0 -45 -35 -81t-84 -36v-118z" />
<glyph unicode="|" horiz-adv-x="268" d="M33 -2h200v1434h-200v-1434z" />
<glyph unicode="}" horiz-adv-x="387" d="M23 0h59q74 0 127 53t53 125v367q0 47 35 82t84 35v118q-51 0 -85 36t-34 81v356q0 74 -53 127.5t-127 53.5h-59v-119q49 0 83.5 -35t34.5 -86v-387q4 -37 27 -59l10 -11q23 -16 51 -16q-29 0 -42 -9t-14 -11.5t-14.5 -15t-17.5 -50.5v-395q0 -51 -34.5 -86t-83.5 -35 v-119z" />
<glyph unicode="~" horiz-adv-x="581" d="M23 1135l178 180l180 -180l178 180v119l-178 -181l-180 181l-178 -181v-118z" />
<glyph unicode="&#xa9;" horiz-adv-x="401" d="M33 442q0 -25 18 -45q23 -18 45 -18h209q20 0 43 18q18 20 19 45v545q0 25 -18.5 43.5t-43.5 18.5h-209q-27 0 -45 -18.5t-18 -43.5v-545zM74 463v502q0 18 12 30t31 13h166q18 0 30.5 -12.5t12.5 -30.5v-502q0 -16 -12.5 -28.5t-30.5 -12.5h-166q-18 0 -30.5 12 t-12.5 29zM117 528q0 -25 18 -45q23 -18 45 -18h41q23 0 45 18q16 18 17 45v64h-41v-43q0 -16 -12.5 -28.5t-29.5 -12.5t-29.5 12t-12.5 29v336q0 16 12 28.5t29.5 12.5t30 -12.5t12.5 -28.5v-43h41v63q0 29 -16.5 45.5t-45.5 16.5h-41q-29 0 -46 -17.5t-17 -44.5v-377z" />
<glyph unicode="&#xad;" d="M33 178h477v121h-477v-121z" />
<glyph unicode="&#xae;" horiz-adv-x="401" d="M33 442q0 -25 18 -45q23 -18 45 -18h209q20 0 43 18q18 20 19 45v545q0 25 -18.5 43.5t-43.5 18.5h-209q-27 0 -45 -18.5t-18 -43.5v-545zM74 463v502q0 18 12 30.5t31 12.5h166q18 0 30.5 -12.5t12.5 -30.5v-502q0 -16 -12.5 -28.5t-30.5 -12.5h-166q-18 0 -30.5 12 t-12.5 29zM117 465h41v231h43q16 0 28.5 -12t12.5 -31v-188h41v221q0 14 -5 20q-12 11 -24 11q10 0 16 6h2q0 2 5 6t6 19v157q0 29 -16.5 45.5t-45.5 16.5h-104v-502zM158 737v189h43q16 0 28.5 -12.5t12.5 -28.5v-105q0 -18 -12.5 -30.5t-28.5 -12.5h-43z" />
<glyph unicode="&#xb0;" horiz-adv-x="532" d="M27 1118q0 -72 53 -125t125 -53h121q74 0 126 52t52 126v137q0 76 -52 128t-126 53h-121q-72 0 -125 -53.5t-53 -127.5v-137zM145 1180v16q0 47 35 86q39 35 87 35t83 -37t35 -84v-16q0 -47 -35 -84t-83 -37t-87 35q-35 39 -35 86z" />
<glyph unicode="&#xb1;" horiz-adv-x="516" d="M18 0h478v119h-478v-119zM18 383h179v-178h120v178h179v121h-179v178h-120v-178h-179v-121z" />
<glyph unicode="&#xb2;" horiz-adv-x="260" d="M31 817h205v51h-154l135 310q22 51 19 102v76q0 35 -23 56.5t-53 21.5h-54q-31 0 -53 -22.5t-22 -55.5v-76h51v51q0 18 14 37q18 14 37 14q18 0 37 -14q14 -14 14 -37v-78q-4 -22 -10 -36l-143 -343v-57z" />
<glyph unicode="&#xb3;" horiz-adv-x="270" d="M29 891q0 -33 24.5 -55.5t52.5 -22.5h52q33 0 55.5 21.5t22.5 56.5v194q0 16 -11.5 27.5t-25.5 11.5q10 0 22 6q0 2 7 8.5t8 24.5v195q0 33 -23 55.5t-55 22.5h-52q-29 0 -55 -23q-23 -27 -22 -55v-78h51v51q0 20 16.5 36.5t36.5 16.5t37 -16q14 -18 14 -37v-129 q0 -18 -14 -37q-16 -16 -37 -16h-27v-51h27q23 0 37 -16.5t14 -34.5v-129q0 -18 -14 -39q-18 -14 -37 -15q-18 0 -37 15q-16 20 -16 39v51h-51v-78z" />
<glyph unicode="&#xb4;" horiz-adv-x="264" d="M12 1194h121l119 240h-119z" />
<glyph unicode="&#xb9;" horiz-adv-x="167" d="M4 1323l76 53v-557h51v613h-51l-76 -52v-57z" />
<glyph unicode="&#xbf;" horiz-adv-x="505" d="M8 180q0 -76 52 -128t126 -52h121q72 0 125 53t53 127v178h-118v-118q0 -47 -35 -86q-39 -35 -87 -35t-83 37t-35 84v417q0 49 35 84t84 35h61q72 0 125 53.5t53 126.5v238h-118v-178q0 -49 -35 -84t-86 -35h-60q-74 0 -127 -53q-51 -55 -51 -123v-541zM367 1315h118v119 h-118v-119z" />
<glyph unicode="&#x2000;" horiz-adv-x="718" />
<glyph unicode="&#x2001;" horiz-adv-x="1436" />
<glyph unicode="&#x2002;" horiz-adv-x="718" />
<glyph unicode="&#x2003;" horiz-adv-x="1436" />
<glyph unicode="&#x2004;" horiz-adv-x="478" />
<glyph unicode="&#x2005;" horiz-adv-x="359" />
<glyph unicode="&#x2006;" horiz-adv-x="239" />
<glyph unicode="&#x2007;" horiz-adv-x="239" />
<glyph unicode="&#x2008;" horiz-adv-x="179" />
<glyph unicode="&#x2009;" horiz-adv-x="287" />
<glyph unicode="&#x200a;" horiz-adv-x="79" />
<glyph unicode="&#x2010;" d="M33 178h477v121h-477v-121z" />
<glyph unicode="&#x2011;" d="M33 178h477v121h-477v-121z" />
<glyph unicode="&#x2012;" d="M33 178h477v121h-477v-121z" />
<glyph unicode="&#x2013;" horiz-adv-x="1091" d="M33 178h1024v121h-1024v-121z" />
<glyph unicode="&#x2014;" horiz-adv-x="2115" d="M33 178h2048v121h-2048v-121z" />
<glyph unicode="&#x2018;" horiz-adv-x="188" d="M33 1075h119v359h-119v-359z" />
<glyph unicode="&#x2019;" horiz-adv-x="188" d="M33 1075h119v359h-119v-359z" />
<glyph unicode="&#x201a;" horiz-adv-x="176" d="M31 0h59l60 59v119h-119v-119h59z" />
<glyph unicode="&#x201c;" horiz-adv-x="425" d="M33 1075h119v359h-119v-359zM272 1075h119v359h-119v-359z" />
<glyph unicode="&#x201d;" horiz-adv-x="425" d="M33 1075h119v359h-119v-359zM272 1075h119v359h-119v-359z" />
<glyph unicode="&#x201e;" horiz-adv-x="425" d="M33 0h119v358h-119v-358zM272 0h119v358h-119v-358z" />
<glyph unicode="&#x2022;" horiz-adv-x="237" d="M29 686q0 -27 18 -41q14 -18 41 -18h59q25 0 42 16t18 43v62q0 27 -17 40q-18 18 -43 19h-59q-27 -1 -41 -19q-18 -16 -18 -40v-62z" />
<glyph unicode="&#x2026;" d="M33 0h119v119h-119v-119zM211 0h121v119h-121v-119zM391 0h119v119h-119v-119z" />
<glyph unicode="&#x202f;" horiz-adv-x="287" />
<glyph unicode="&#x205f;" horiz-adv-x="359" />
<glyph unicode="&#x20ac;" horiz-adv-x="643" d="M14 537h119v-359q0 -72 53.5 -125t126.5 -53h119q74 0 127 53t53 125v180h-120v-118q0 -51 -35 -86t-84 -35t-84 34.5t-35 86.5v297h238v120h-238v119h297v119h-297v299q0 51 35 86t84 35t84 -35t35 -86v-119h120v178q0 74 -53 127.5t-127 53.5h-119q-74 0 -127 -53.5 t-53 -127.5v-358h-59v-119h59v-119h-119v-120z" />
<glyph unicode="&#x2122;" horiz-adv-x="569" d="M20 1374h84v-616h56v616h84v56h-224v-56zM258 758h55v448l58 -448h55l55 448v-448h56v672h-91l-49 -476l-51 476h-88v-672z" />
<glyph unicode="&#xe000;" horiz-adv-x="1433" d="M0 0v1434h1434v-1434h-1434z" />
</font>
</defs>
</svg>
